G75*
G70*
%OFA0B0*%
%FSLAX24Y24*%
%IPPOS*%
%LPD*%
%AMOC8*
5,1,8,0,0,1.08239X$1,22.5*
%
%ADD10C,0.0480*%
%ADD11OC8,0.0480*%
%ADD12C,0.0600*%
%ADD13OC8,0.0630*%
%ADD14C,0.0630*%
%ADD15C,0.0160*%
%ADD16C,0.0100*%
%ADD17R,0.0376X0.0376*%
D10*
X005441Y001681D02*
X005921Y001681D01*
X005921Y002681D02*
X005441Y002681D01*
X005441Y003681D02*
X005921Y003681D01*
X005921Y004681D02*
X005441Y004681D01*
X005441Y005681D02*
X005921Y005681D01*
X005921Y006681D02*
X005441Y006681D01*
X005441Y007681D02*
X005921Y007681D01*
X005921Y008681D02*
X005441Y008681D01*
X005441Y009681D02*
X005921Y009681D01*
X005921Y010681D02*
X005441Y010681D01*
X005441Y011681D02*
X005921Y011681D01*
X005921Y012681D02*
X005441Y012681D01*
X005441Y013681D02*
X005921Y013681D01*
X005921Y014681D02*
X005441Y014681D01*
X008441Y014681D02*
X008921Y014681D01*
X008921Y013681D02*
X008441Y013681D01*
X008441Y012681D02*
X008921Y012681D01*
X008921Y011681D02*
X008441Y011681D01*
X008441Y010681D02*
X008921Y010681D01*
X008921Y009681D02*
X008441Y009681D01*
X008441Y008681D02*
X008921Y008681D01*
X008921Y007681D02*
X008441Y007681D01*
X008441Y006681D02*
X008921Y006681D01*
X008921Y005681D02*
X008441Y005681D01*
X008441Y004681D02*
X008921Y004681D01*
X008921Y003681D02*
X008441Y003681D01*
X008441Y002681D02*
X008921Y002681D01*
X008921Y001681D02*
X008441Y001681D01*
X009941Y009197D02*
X010421Y009197D01*
X010421Y010181D02*
X009941Y010181D01*
X009941Y011166D02*
X010421Y011166D01*
D11*
X010181Y013681D03*
X010181Y014681D03*
X010181Y008181D03*
X010181Y004181D03*
X004181Y003181D03*
X004181Y007181D03*
X004181Y008181D03*
X004181Y012181D03*
D12*
X001481Y012181D02*
X000881Y012181D01*
X000881Y013181D02*
X001481Y013181D01*
X001481Y014181D02*
X000881Y014181D01*
X000881Y015181D02*
X001481Y015181D01*
X001481Y010681D02*
X000881Y010681D01*
X000881Y009681D02*
X001481Y009681D01*
X001481Y008681D02*
X000881Y008681D01*
X000881Y006681D02*
X001481Y006681D01*
X001481Y005681D02*
X000881Y005681D01*
X005181Y016381D02*
X005181Y016981D01*
X006181Y016981D02*
X006181Y016381D01*
X007181Y016381D02*
X007181Y016981D01*
X008181Y016981D02*
X008181Y016381D01*
X009181Y016381D02*
X009181Y016981D01*
X009881Y003181D02*
X010481Y003181D01*
X010481Y002181D02*
X009881Y002181D01*
X009881Y001181D02*
X010481Y001181D01*
D13*
X002181Y001481D03*
D14*
X002181Y002881D03*
D15*
X000411Y000411D02*
X000411Y008581D01*
X000413Y008569D01*
X000437Y008497D01*
X000471Y008430D01*
X000515Y008369D01*
X000569Y008315D01*
X000630Y008271D01*
X000697Y008237D01*
X000769Y008213D01*
X000844Y008201D01*
X001161Y008201D01*
X001161Y008661D01*
X001201Y008661D01*
X001201Y008201D01*
X001519Y008201D01*
X001594Y008213D01*
X001666Y008237D01*
X001733Y008271D01*
X001794Y008315D01*
X001848Y008369D01*
X001892Y008430D01*
X001926Y008497D01*
X001950Y008569D01*
X001961Y008644D01*
X001961Y008661D01*
X001202Y008661D01*
X001202Y008701D01*
X001961Y008701D01*
X001961Y008719D01*
X001950Y008794D01*
X001926Y008866D01*
X001892Y008933D01*
X001848Y008994D01*
X001794Y009048D01*
X001733Y009092D01*
X001666Y009126D01*
X001594Y009150D01*
X001519Y009161D01*
X001201Y009161D01*
X001201Y008702D01*
X001161Y008702D01*
X001161Y009161D01*
X000844Y009161D01*
X000769Y009150D01*
X000697Y009126D01*
X000630Y009092D01*
X000569Y009048D01*
X000515Y008994D01*
X000471Y008933D01*
X000437Y008866D01*
X000413Y008794D01*
X000411Y008782D01*
X000411Y015081D01*
X000413Y015069D01*
X000437Y014997D01*
X000471Y014930D01*
X000515Y014869D01*
X000569Y014815D01*
X000630Y014771D01*
X000697Y014737D01*
X000769Y014713D01*
X000844Y014701D01*
X001161Y014701D01*
X001161Y015161D01*
X001201Y015161D01*
X001201Y014701D01*
X001519Y014701D01*
X001594Y014713D01*
X001666Y014737D01*
X001733Y014771D01*
X001794Y014815D01*
X001848Y014869D01*
X001892Y014930D01*
X001926Y014997D01*
X001950Y015069D01*
X001961Y015144D01*
X001961Y015161D01*
X001202Y015161D01*
X001202Y015201D01*
X001961Y015201D01*
X001961Y015219D01*
X001950Y015294D01*
X001926Y015366D01*
X001892Y015433D01*
X001848Y015494D01*
X001794Y015548D01*
X001733Y015592D01*
X001666Y015626D01*
X001594Y015650D01*
X001519Y015661D01*
X001201Y015661D01*
X001201Y015202D01*
X001161Y015202D01*
X001161Y015661D01*
X000844Y015661D01*
X000769Y015650D01*
X000697Y015626D01*
X000630Y015592D01*
X000569Y015548D01*
X000515Y015494D01*
X000471Y015433D01*
X000437Y015366D01*
X000413Y015294D01*
X000411Y015282D01*
X000411Y017947D01*
X010821Y017947D01*
X010821Y010309D01*
X010811Y010343D01*
X010781Y010402D01*
X010742Y010455D01*
X010695Y010502D01*
X010642Y010541D01*
X010583Y010571D01*
X010520Y010591D01*
X010454Y010601D01*
X010182Y010601D01*
X010182Y010182D01*
X010181Y010182D01*
X010181Y010601D01*
X009908Y010601D01*
X009843Y010591D01*
X009780Y010571D01*
X009721Y010541D01*
X009668Y010502D01*
X009621Y010455D01*
X009582Y010402D01*
X009552Y010343D01*
X009532Y010280D01*
X009521Y010214D01*
X009521Y010182D01*
X010181Y010182D01*
X010181Y010181D01*
X010182Y010181D01*
X010182Y009761D01*
X010454Y009761D01*
X010520Y009772D01*
X010583Y009792D01*
X010642Y009822D01*
X010695Y009861D01*
X010742Y009908D01*
X010781Y009961D01*
X010811Y010020D01*
X010821Y010054D01*
X010821Y003464D01*
X010731Y003554D01*
X010569Y003621D01*
X010401Y003621D01*
X010401Y003864D01*
X010561Y004024D01*
X010561Y004339D01*
X010339Y004561D01*
X010024Y004561D01*
X009801Y004339D01*
X009801Y004024D01*
X009961Y003864D01*
X009961Y003621D01*
X009794Y003621D01*
X009632Y003554D01*
X009508Y003431D01*
X009441Y003269D01*
X009441Y003094D01*
X009508Y002932D01*
X009632Y002808D01*
X009794Y002741D01*
X010569Y002741D01*
X010731Y002808D01*
X010821Y002899D01*
X010821Y002520D01*
X010794Y002548D01*
X010733Y002592D01*
X010666Y002626D01*
X010594Y002650D01*
X010519Y002661D01*
X010201Y002661D01*
X010201Y002202D01*
X010161Y002202D01*
X010161Y002661D01*
X009844Y002661D01*
X009769Y002650D01*
X009697Y002626D01*
X009630Y002592D01*
X009569Y002548D01*
X009515Y002494D01*
X009471Y002433D01*
X009437Y002366D01*
X009413Y002294D01*
X009401Y002219D01*
X009401Y002201D01*
X010161Y002201D01*
X010161Y002161D01*
X010201Y002161D01*
X010201Y001701D01*
X010519Y001701D01*
X010594Y001713D01*
X010666Y001737D01*
X010733Y001771D01*
X010794Y001815D01*
X010821Y001843D01*
X010821Y001464D01*
X010731Y001554D01*
X010569Y001621D01*
X009794Y001621D01*
X009632Y001554D01*
X009508Y001431D01*
X009441Y001269D01*
X009441Y001094D01*
X009508Y000932D01*
X009539Y000901D01*
X004773Y000901D01*
X004401Y001273D01*
X004401Y002864D01*
X004561Y003024D01*
X004561Y003339D01*
X004339Y003561D01*
X004024Y003561D01*
X003801Y003339D01*
X003801Y003024D01*
X003961Y002864D01*
X003961Y001273D01*
X003961Y001090D01*
X004461Y000590D01*
X004590Y000461D01*
X009590Y000461D01*
X009773Y000461D01*
X010053Y000741D01*
X010569Y000741D01*
X010731Y000808D01*
X010821Y000899D01*
X010821Y000411D01*
X000411Y000411D01*
X000411Y000499D02*
X004553Y000499D01*
X004681Y000681D02*
X009681Y000681D01*
X010181Y001181D01*
X010161Y001701D02*
X009844Y001701D01*
X009769Y001713D01*
X009697Y001737D01*
X009630Y001771D01*
X009569Y001815D01*
X009515Y001869D01*
X009471Y001930D01*
X009437Y001997D01*
X009413Y002069D01*
X009401Y002144D01*
X009401Y002161D01*
X010161Y002161D01*
X010161Y001701D01*
X010161Y001767D02*
X010201Y001767D01*
X010201Y001925D02*
X010161Y001925D01*
X010161Y002084D02*
X010201Y002084D01*
X010201Y002242D02*
X010161Y002242D01*
X010161Y002401D02*
X010201Y002401D01*
X010201Y002560D02*
X010161Y002560D01*
X010181Y003181D02*
X010181Y004181D01*
X009925Y004462D02*
X009239Y004462D01*
X009244Y004466D02*
X009301Y004606D01*
X009301Y004757D01*
X009244Y004897D01*
X009137Y005004D01*
X008997Y005061D01*
X008366Y005061D01*
X008226Y005004D01*
X008119Y004897D01*
X008061Y004757D01*
X008061Y004606D01*
X008119Y004466D01*
X008226Y004359D01*
X008366Y004301D01*
X008997Y004301D01*
X009137Y004359D01*
X009244Y004466D01*
X009301Y004621D02*
X010821Y004621D01*
X010821Y004779D02*
X009292Y004779D01*
X009202Y004938D02*
X010821Y004938D01*
X010821Y005096D02*
X007401Y005096D01*
X007401Y004938D02*
X008160Y004938D01*
X008071Y004779D02*
X007401Y004779D01*
X007401Y004621D02*
X008061Y004621D01*
X008123Y004462D02*
X007401Y004462D01*
X007401Y004304D02*
X008361Y004304D01*
X008366Y004061D02*
X008226Y004004D01*
X008119Y003897D01*
X008061Y003757D01*
X008061Y003606D01*
X008119Y003466D01*
X008226Y003359D01*
X008366Y003301D01*
X008997Y003301D01*
X009137Y003359D01*
X009244Y003466D01*
X009301Y003606D01*
X009301Y003757D01*
X009244Y003897D01*
X009137Y004004D01*
X008997Y004061D01*
X008366Y004061D01*
X008209Y003986D02*
X007401Y003986D01*
X007401Y003828D02*
X008091Y003828D01*
X008061Y003669D02*
X007401Y003669D01*
X007401Y003511D02*
X008101Y003511D01*
X008243Y003352D02*
X007401Y003352D01*
X007401Y003194D02*
X009441Y003194D01*
X009466Y003035D02*
X009060Y003035D01*
X008997Y003061D02*
X008366Y003061D01*
X008226Y003004D01*
X008119Y002897D01*
X008061Y002757D01*
X008061Y002606D01*
X008119Y002466D01*
X008226Y002359D01*
X008366Y002301D01*
X008997Y002301D01*
X009137Y002359D01*
X009244Y002466D01*
X009301Y002606D01*
X009301Y002757D01*
X009244Y002897D01*
X009137Y003004D01*
X008997Y003061D01*
X009252Y002877D02*
X009564Y002877D01*
X009585Y002560D02*
X009282Y002560D01*
X009301Y002718D02*
X010821Y002718D01*
X010821Y002560D02*
X010778Y002560D01*
X010799Y002877D02*
X010821Y002877D01*
X010821Y003511D02*
X010774Y003511D01*
X010821Y003669D02*
X010401Y003669D01*
X010401Y003828D02*
X010821Y003828D01*
X010821Y003986D02*
X010524Y003986D01*
X010561Y004145D02*
X010821Y004145D01*
X010821Y004304D02*
X010561Y004304D01*
X010438Y004462D02*
X010821Y004462D01*
X010821Y005255D02*
X007401Y005255D01*
X007401Y005413D02*
X008172Y005413D01*
X008119Y005466D02*
X008226Y005359D01*
X008366Y005301D01*
X008997Y005301D01*
X009137Y005359D01*
X009244Y005466D01*
X009301Y005606D01*
X009301Y005757D01*
X009244Y005897D01*
X009137Y006004D01*
X008997Y006061D01*
X008366Y006061D01*
X008226Y006004D01*
X008119Y005897D01*
X008061Y005757D01*
X008061Y005606D01*
X008119Y005466D01*
X008075Y005572D02*
X007401Y005572D01*
X007401Y005730D02*
X008061Y005730D01*
X008116Y005889D02*
X007401Y005889D01*
X007401Y006048D02*
X008332Y006048D01*
X008366Y006301D02*
X008226Y006359D01*
X008119Y006466D01*
X008061Y006606D01*
X008061Y006757D01*
X008119Y006897D01*
X008226Y007004D01*
X008366Y007061D01*
X008997Y007061D01*
X009137Y007004D01*
X009244Y006897D01*
X009301Y006757D01*
X009301Y006606D01*
X009244Y006466D01*
X009137Y006359D01*
X008997Y006301D01*
X008366Y006301D01*
X008221Y006365D02*
X007401Y006365D01*
X007401Y006523D02*
X008096Y006523D01*
X008061Y006682D02*
X007401Y006682D01*
X007401Y006840D02*
X008096Y006840D01*
X008221Y006999D02*
X007401Y006999D01*
X007401Y007157D02*
X010821Y007157D01*
X010821Y006999D02*
X009141Y006999D01*
X009267Y006840D02*
X010821Y006840D01*
X010821Y006682D02*
X009301Y006682D01*
X009267Y006523D02*
X010821Y006523D01*
X010821Y006365D02*
X009142Y006365D01*
X009030Y006048D02*
X010821Y006048D01*
X010821Y006206D02*
X007401Y006206D01*
X006961Y006206D02*
X000411Y006206D01*
X000411Y006048D02*
X000625Y006048D01*
X000632Y006054D02*
X000508Y005931D01*
X000441Y005769D01*
X000441Y005594D01*
X000508Y005432D01*
X000632Y005308D01*
X000794Y005241D01*
X001569Y005241D01*
X001731Y005308D01*
X001854Y005432D01*
X001866Y005461D01*
X005124Y005461D01*
X005226Y005359D01*
X005366Y005301D01*
X005997Y005301D01*
X006137Y005359D01*
X006244Y005466D01*
X006301Y005606D01*
X006301Y005757D01*
X006244Y005897D01*
X006137Y006004D01*
X005997Y006061D01*
X005366Y006061D01*
X005226Y006004D01*
X005124Y005901D01*
X001866Y005901D01*
X001854Y005931D01*
X001731Y006054D01*
X001569Y006121D01*
X000794Y006121D01*
X000632Y006054D01*
X000491Y005889D02*
X000411Y005889D01*
X000411Y005730D02*
X000441Y005730D01*
X000451Y005572D02*
X000411Y005572D01*
X000411Y005413D02*
X000527Y005413D01*
X000411Y005255D02*
X000762Y005255D01*
X000411Y005096D02*
X006961Y005096D01*
X006961Y004938D02*
X006202Y004938D01*
X006244Y004897D02*
X006137Y005004D01*
X005997Y005061D01*
X005366Y005061D01*
X005226Y005004D01*
X005119Y004897D01*
X005061Y004757D01*
X005061Y004606D01*
X005119Y004466D01*
X005226Y004359D01*
X005366Y004301D01*
X005997Y004301D01*
X006137Y004359D01*
X006244Y004466D01*
X006301Y004606D01*
X006301Y004757D01*
X006244Y004897D01*
X006292Y004779D02*
X006961Y004779D01*
X006961Y004621D02*
X006301Y004621D01*
X006239Y004462D02*
X006961Y004462D01*
X006961Y004304D02*
X006002Y004304D01*
X005997Y004061D02*
X005366Y004061D01*
X005226Y004004D01*
X005119Y003897D01*
X005061Y003757D01*
X005061Y003606D01*
X005119Y003466D01*
X005226Y003359D01*
X005366Y003301D01*
X005997Y003301D01*
X006137Y003359D01*
X006244Y003466D01*
X006301Y003606D01*
X006301Y003757D01*
X006244Y003897D01*
X006137Y004004D01*
X005997Y004061D01*
X006154Y003986D02*
X006961Y003986D01*
X006961Y003828D02*
X006272Y003828D01*
X006301Y003669D02*
X006961Y003669D01*
X006961Y003511D02*
X006262Y003511D01*
X006120Y003352D02*
X006961Y003352D01*
X006961Y003194D02*
X004561Y003194D01*
X004548Y003352D02*
X005243Y003352D01*
X005101Y003511D02*
X004389Y003511D01*
X004181Y003181D02*
X004181Y001181D01*
X004681Y000681D01*
X004700Y000974D02*
X009491Y000974D01*
X009441Y001133D02*
X004541Y001133D01*
X004401Y001291D02*
X009451Y001291D01*
X009528Y001450D02*
X009227Y001450D01*
X009244Y001466D02*
X009301Y001606D01*
X009301Y001757D01*
X009244Y001897D01*
X009137Y002004D01*
X008997Y002061D01*
X008366Y002061D01*
X008226Y002004D01*
X008124Y001901D01*
X007773Y001901D01*
X007401Y002273D01*
X007401Y007773D01*
X007273Y007901D01*
X007230Y007901D01*
X006760Y008371D01*
X006603Y008371D01*
X006149Y008371D01*
X006244Y008466D01*
X006301Y008606D01*
X006301Y008757D01*
X006244Y008897D01*
X006137Y009004D01*
X005997Y009061D01*
X005366Y009061D01*
X005226Y009004D01*
X005119Y008897D01*
X005061Y008757D01*
X005061Y008606D01*
X005119Y008466D01*
X005214Y008371D01*
X004529Y008371D01*
X004339Y008561D01*
X004024Y008561D01*
X003801Y008339D01*
X003801Y008024D01*
X004024Y007801D01*
X004339Y007801D01*
X004529Y007991D01*
X005214Y007991D01*
X005119Y007897D01*
X005061Y007757D01*
X005061Y007606D01*
X005119Y007466D01*
X005226Y007359D01*
X005366Y007301D01*
X005997Y007301D01*
X006137Y007359D01*
X006244Y007466D01*
X006301Y007606D01*
X006301Y007757D01*
X006244Y007897D01*
X006149Y007991D01*
X006603Y007991D01*
X006961Y007633D01*
X006301Y007633D01*
X006287Y007791D02*
X006803Y007791D01*
X006644Y007950D02*
X006190Y007950D01*
X006203Y008426D02*
X007168Y008426D01*
X007327Y008267D02*
X006864Y008267D01*
X007023Y008109D02*
X007486Y008109D01*
X007491Y008103D02*
X007603Y007991D01*
X008214Y007991D01*
X008119Y007897D01*
X008061Y007757D01*
X008061Y007606D01*
X008119Y007466D01*
X008226Y007359D01*
X008366Y007301D01*
X008997Y007301D01*
X009137Y007359D01*
X009244Y007466D01*
X009301Y007606D01*
X009301Y007757D01*
X009244Y007897D01*
X009149Y007991D01*
X009834Y007991D01*
X010024Y007801D01*
X010339Y007801D01*
X010561Y008024D01*
X010561Y008339D01*
X010339Y008561D01*
X010024Y008561D01*
X009834Y008371D01*
X009205Y008371D01*
X009242Y008408D01*
X009281Y008461D01*
X009311Y008520D01*
X009331Y008583D01*
X009341Y008648D01*
X009341Y008681D01*
X008682Y008681D01*
X008682Y008682D01*
X008681Y008682D01*
X008681Y009101D01*
X008408Y009101D01*
X008343Y009091D01*
X008280Y009071D01*
X008221Y009041D01*
X008168Y009002D01*
X008121Y008955D01*
X008082Y008902D01*
X008052Y008843D01*
X008032Y008780D01*
X008021Y008714D01*
X008021Y008682D01*
X008681Y008682D01*
X008681Y008681D01*
X008021Y008681D01*
X008021Y008648D01*
X008032Y008583D01*
X008052Y008520D01*
X008082Y008461D01*
X008121Y008408D01*
X008158Y008371D01*
X007760Y008371D01*
X007371Y008760D01*
X007371Y009353D01*
X007428Y009353D01*
X007509Y009435D01*
X007509Y009928D01*
X007428Y010009D01*
X006935Y010009D01*
X006853Y009928D01*
X006853Y009435D01*
X006935Y009353D01*
X006991Y009353D01*
X006991Y008760D01*
X006991Y008603D01*
X007491Y008103D01*
X007382Y007791D02*
X008076Y007791D01*
X008061Y007633D02*
X007401Y007633D01*
X007401Y007474D02*
X008116Y007474D01*
X008331Y007316D02*
X007401Y007316D01*
X007181Y007681D02*
X007181Y002181D01*
X007681Y001681D01*
X008681Y001681D01*
X008366Y001301D02*
X008997Y001301D01*
X009137Y001359D01*
X009244Y001466D01*
X009301Y001608D02*
X009762Y001608D01*
X009638Y001767D02*
X009297Y001767D01*
X009215Y001925D02*
X009474Y001925D01*
X009411Y002084D02*
X007590Y002084D01*
X007431Y002242D02*
X009405Y002242D01*
X009455Y002401D02*
X009178Y002401D01*
X009120Y003352D02*
X009476Y003352D01*
X009589Y003511D02*
X009262Y003511D01*
X009301Y003669D02*
X009961Y003669D01*
X009961Y003828D02*
X009272Y003828D01*
X009154Y003986D02*
X009839Y003986D01*
X009801Y004145D02*
X007401Y004145D01*
X006961Y004145D02*
X000411Y004145D01*
X000411Y003986D02*
X005209Y003986D01*
X005091Y003828D02*
X000411Y003828D01*
X000411Y003669D02*
X005061Y003669D01*
X005303Y003035D02*
X004561Y003035D01*
X004414Y002877D02*
X005111Y002877D01*
X005119Y002897D02*
X005061Y002757D01*
X005061Y002606D01*
X005119Y002466D01*
X005226Y002359D01*
X005366Y002301D01*
X005997Y002301D01*
X006137Y002359D01*
X006244Y002466D01*
X006301Y002606D01*
X006301Y002757D01*
X006244Y002897D01*
X006137Y003004D01*
X005997Y003061D01*
X005366Y003061D01*
X005226Y003004D01*
X005119Y002897D01*
X005061Y002718D02*
X004401Y002718D01*
X004401Y002560D02*
X005081Y002560D01*
X005184Y002401D02*
X004401Y002401D01*
X004401Y002242D02*
X006961Y002242D01*
X006961Y002273D02*
X006961Y002090D01*
X007461Y001590D01*
X007590Y001461D01*
X008124Y001461D01*
X008226Y001359D01*
X008366Y001301D01*
X008136Y001450D02*
X006227Y001450D01*
X006244Y001466D02*
X006301Y001606D01*
X006301Y001757D01*
X006244Y001897D01*
X006137Y002004D01*
X005997Y002061D01*
X005366Y002061D01*
X005226Y002004D01*
X005119Y001897D01*
X005061Y001757D01*
X005061Y001606D01*
X005119Y001466D01*
X005226Y001359D01*
X005366Y001301D01*
X005997Y001301D01*
X006137Y001359D01*
X006244Y001466D01*
X006301Y001608D02*
X007443Y001608D01*
X007285Y001767D02*
X006297Y001767D01*
X006215Y001925D02*
X007126Y001925D01*
X006968Y002084D02*
X004401Y002084D01*
X004401Y001925D02*
X005148Y001925D01*
X005066Y001767D02*
X004401Y001767D01*
X004401Y001608D02*
X005061Y001608D01*
X005136Y001450D02*
X004401Y001450D01*
X004078Y000974D02*
X000411Y000974D01*
X000411Y000816D02*
X004236Y000816D01*
X004395Y000657D02*
X000411Y000657D01*
X000411Y001133D02*
X001830Y001133D01*
X001686Y001276D02*
X001976Y000986D01*
X002181Y000986D01*
X002181Y001481D01*
X001686Y001481D01*
X001686Y001276D01*
X001686Y001291D02*
X000411Y001291D01*
X000411Y001450D02*
X001686Y001450D01*
X001686Y001482D02*
X002181Y001482D01*
X002181Y001976D01*
X001976Y001976D01*
X001686Y001686D01*
X001686Y001482D01*
X001686Y001608D02*
X000411Y001608D01*
X000411Y001767D02*
X001767Y001767D01*
X001925Y001925D02*
X000411Y001925D01*
X000411Y002084D02*
X003961Y002084D01*
X003961Y002242D02*
X000411Y002242D01*
X000411Y002401D02*
X003961Y002401D01*
X003961Y002560D02*
X002503Y002560D01*
X002567Y002624D02*
X002636Y002791D01*
X002636Y002972D01*
X002567Y003139D01*
X002439Y003267D01*
X002272Y003336D01*
X002091Y003336D01*
X001924Y003267D01*
X001796Y003139D01*
X001726Y002972D01*
X001726Y002791D01*
X001796Y002624D01*
X001924Y002496D01*
X002091Y002426D01*
X002272Y002426D01*
X002439Y002496D01*
X002567Y002624D01*
X002606Y002718D02*
X003961Y002718D01*
X003949Y002877D02*
X002636Y002877D01*
X002610Y003035D02*
X003801Y003035D01*
X003801Y003194D02*
X002513Y003194D01*
X001850Y003194D02*
X000411Y003194D01*
X000411Y003352D02*
X003815Y003352D01*
X003973Y003511D02*
X000411Y003511D01*
X000411Y003035D02*
X001753Y003035D01*
X001726Y002877D02*
X000411Y002877D01*
X000411Y002718D02*
X001757Y002718D01*
X001860Y002560D02*
X000411Y002560D01*
X000411Y004304D02*
X005361Y004304D01*
X005123Y004462D02*
X000411Y004462D01*
X000411Y004621D02*
X005061Y004621D01*
X005071Y004779D02*
X000411Y004779D01*
X000411Y004938D02*
X005160Y004938D01*
X005172Y005413D02*
X001836Y005413D01*
X001601Y005255D02*
X006961Y005255D01*
X006961Y005413D02*
X006191Y005413D01*
X006287Y005572D02*
X006961Y005572D01*
X006961Y005730D02*
X006301Y005730D01*
X006247Y005889D02*
X006961Y005889D01*
X006961Y006048D02*
X006030Y006048D01*
X005997Y006301D02*
X006137Y006359D01*
X006244Y006466D01*
X006301Y006606D01*
X006301Y006757D01*
X006244Y006897D01*
X006137Y007004D01*
X005997Y007061D01*
X005366Y007061D01*
X005226Y007004D01*
X005124Y006901D01*
X004439Y006901D01*
X004561Y007024D01*
X004561Y007339D01*
X004339Y007561D01*
X004024Y007561D01*
X003864Y007401D01*
X003773Y007401D01*
X003401Y007773D01*
X003401Y009090D01*
X003773Y009461D01*
X005124Y009461D01*
X005226Y009359D01*
X005366Y009301D01*
X005997Y009301D01*
X006137Y009359D01*
X006244Y009466D01*
X006301Y009606D01*
X006301Y009757D01*
X006244Y009897D01*
X006137Y010004D01*
X005997Y010061D01*
X005366Y010061D01*
X005226Y010004D01*
X005124Y009901D01*
X003773Y009901D01*
X002773Y010901D01*
X002590Y010901D01*
X001866Y010901D01*
X001854Y010931D01*
X001731Y011054D01*
X001569Y011121D01*
X001401Y011121D01*
X001401Y011741D01*
X001569Y011741D01*
X001731Y011808D01*
X001854Y011932D01*
X001866Y011961D01*
X003864Y011961D01*
X004024Y011801D01*
X004339Y011801D01*
X004561Y012024D01*
X004561Y012250D01*
X005061Y012750D01*
X005061Y012606D01*
X005119Y012466D01*
X005226Y012359D01*
X005366Y012301D01*
X005997Y012301D01*
X006137Y012359D01*
X006244Y012466D01*
X006301Y012606D01*
X006301Y012757D01*
X006244Y012897D01*
X006179Y012961D01*
X006590Y012961D01*
X006773Y012961D01*
X007273Y013461D01*
X007401Y013590D01*
X007401Y014590D01*
X008273Y015461D01*
X009090Y015461D01*
X009273Y015461D01*
X009401Y015590D01*
X009401Y015996D01*
X009431Y016008D01*
X009554Y016132D01*
X009621Y016294D01*
X009621Y017069D01*
X009554Y017231D01*
X009431Y017354D01*
X009269Y017421D01*
X009094Y017421D01*
X008932Y017354D01*
X008808Y017231D01*
X008741Y017069D01*
X008741Y016294D01*
X008808Y016132D01*
X008932Y016008D01*
X008961Y015996D01*
X008961Y015901D01*
X008090Y015901D01*
X007961Y015773D01*
X006961Y014773D01*
X006961Y014590D01*
X006961Y013773D01*
X006590Y013401D01*
X006179Y013401D01*
X006244Y013466D01*
X006301Y013606D01*
X006301Y013757D01*
X006244Y013897D01*
X006137Y014004D01*
X005997Y014061D01*
X005366Y014061D01*
X005226Y014004D01*
X005119Y013897D01*
X005061Y013757D01*
X005061Y013606D01*
X005119Y013466D01*
X005184Y013401D01*
X005090Y013401D01*
X004961Y013273D01*
X004250Y012561D01*
X004024Y012561D01*
X003864Y012401D01*
X001866Y012401D01*
X001854Y012431D01*
X001731Y012554D01*
X001569Y012621D01*
X000794Y012621D01*
X000632Y012554D01*
X000508Y012431D01*
X000441Y012269D01*
X000441Y012094D01*
X000508Y011932D01*
X000632Y011808D01*
X000794Y011741D01*
X000961Y011741D01*
X000961Y011121D01*
X000794Y011121D01*
X000632Y011054D01*
X000508Y010931D01*
X000441Y010769D01*
X000441Y010594D01*
X000508Y010432D01*
X000632Y010308D01*
X000794Y010241D01*
X001569Y010241D01*
X001731Y010308D01*
X001854Y010432D01*
X001866Y010461D01*
X002590Y010461D01*
X003370Y009681D01*
X002961Y009273D01*
X002961Y009090D01*
X002961Y007901D01*
X002509Y007901D01*
X002509Y007928D01*
X002428Y008009D01*
X001935Y008009D01*
X001853Y007928D01*
X001853Y007435D01*
X001935Y007353D01*
X002428Y007353D01*
X002509Y007435D01*
X002509Y007461D01*
X003090Y007461D01*
X003590Y006961D01*
X003773Y006961D01*
X003864Y006961D01*
X003924Y006901D01*
X001866Y006901D01*
X001854Y006931D01*
X001731Y007054D01*
X001569Y007121D01*
X000794Y007121D01*
X000632Y007054D01*
X000508Y006931D01*
X000441Y006769D01*
X000441Y006594D01*
X000508Y006432D01*
X000632Y006308D01*
X000794Y006241D01*
X001569Y006241D01*
X001731Y006308D01*
X001854Y006432D01*
X001866Y006461D01*
X005124Y006461D01*
X005226Y006359D01*
X005366Y006301D01*
X005997Y006301D01*
X006142Y006365D02*
X006961Y006365D01*
X006961Y006523D02*
X006267Y006523D01*
X006301Y006682D02*
X006961Y006682D01*
X006961Y006840D02*
X006267Y006840D01*
X006141Y006999D02*
X006961Y006999D01*
X006961Y007157D02*
X004561Y007157D01*
X004561Y007316D02*
X005331Y007316D01*
X005116Y007474D02*
X004426Y007474D01*
X004181Y007181D02*
X003681Y007181D01*
X003181Y007681D01*
X002181Y007681D01*
X002487Y007950D02*
X002961Y007950D01*
X002961Y008109D02*
X000411Y008109D01*
X000411Y008267D02*
X000637Y008267D01*
X000474Y008426D02*
X000411Y008426D01*
X000411Y007950D02*
X001876Y007950D01*
X001853Y007791D02*
X000411Y007791D01*
X000411Y007633D02*
X001853Y007633D01*
X001853Y007474D02*
X000411Y007474D01*
X000411Y007316D02*
X003236Y007316D01*
X003394Y007157D02*
X000411Y007157D01*
X000411Y006999D02*
X000577Y006999D01*
X000471Y006840D02*
X000411Y006840D01*
X000411Y006682D02*
X000441Y006682D01*
X000411Y006523D02*
X000471Y006523D01*
X000411Y006365D02*
X000576Y006365D01*
X001181Y006681D02*
X005681Y006681D01*
X005221Y006365D02*
X001787Y006365D01*
X001738Y006048D02*
X005332Y006048D01*
X005681Y005681D02*
X001181Y005681D01*
X001786Y006999D02*
X003553Y006999D01*
X003699Y007474D02*
X003937Y007474D01*
X003541Y007633D02*
X005061Y007633D01*
X005076Y007791D02*
X003401Y007791D01*
X003401Y007950D02*
X003875Y007950D01*
X003801Y008109D02*
X003401Y008109D01*
X003401Y008267D02*
X003801Y008267D01*
X003888Y008426D02*
X003401Y008426D01*
X003401Y008584D02*
X005070Y008584D01*
X005061Y008743D02*
X003401Y008743D01*
X003401Y008901D02*
X005124Y008901D01*
X005362Y009060D02*
X003401Y009060D01*
X003529Y009218D02*
X006991Y009218D01*
X006991Y009060D02*
X006001Y009060D01*
X006239Y008901D02*
X006991Y008901D01*
X006991Y008743D02*
X006301Y008743D01*
X006292Y008584D02*
X007010Y008584D01*
X007371Y008901D02*
X008082Y008901D01*
X008026Y008743D02*
X007389Y008743D01*
X007547Y008584D02*
X008032Y008584D01*
X008108Y008426D02*
X007706Y008426D01*
X008173Y007950D02*
X007181Y007950D01*
X006961Y007633D02*
X006961Y002273D01*
X006961Y002401D02*
X006178Y002401D01*
X006282Y002560D02*
X006961Y002560D01*
X006961Y002718D02*
X006301Y002718D01*
X006252Y002877D02*
X006961Y002877D01*
X006961Y003035D02*
X006060Y003035D01*
X007401Y003035D02*
X008303Y003035D01*
X008111Y002877D02*
X007401Y002877D01*
X007401Y002718D02*
X008061Y002718D01*
X008081Y002560D02*
X007401Y002560D01*
X007401Y002401D02*
X008184Y002401D01*
X008148Y001925D02*
X007749Y001925D01*
X009002Y004304D02*
X009801Y004304D01*
X009191Y005413D02*
X010821Y005413D01*
X010821Y005572D02*
X009287Y005572D01*
X009301Y005730D02*
X010821Y005730D01*
X010821Y005889D02*
X009247Y005889D01*
X009032Y007316D02*
X010821Y007316D01*
X010821Y007474D02*
X009247Y007474D01*
X009301Y007633D02*
X010821Y007633D01*
X010821Y007791D02*
X009287Y007791D01*
X009190Y007950D02*
X009875Y007950D01*
X009888Y008426D02*
X009255Y008426D01*
X009331Y008584D02*
X010821Y008584D01*
X010821Y008426D02*
X010474Y008426D01*
X010561Y008267D02*
X010821Y008267D01*
X010821Y008109D02*
X010561Y008109D01*
X010487Y007950D02*
X010821Y007950D01*
X010821Y008743D02*
X009337Y008743D01*
X009341Y008714D02*
X009331Y008780D01*
X009311Y008843D01*
X009281Y008902D01*
X009242Y008955D01*
X009220Y008977D01*
X009257Y008977D01*
X009624Y008977D01*
X009726Y008875D01*
X009866Y008817D01*
X010497Y008817D01*
X010637Y008875D01*
X010744Y008982D01*
X010801Y009122D01*
X010801Y009273D01*
X010744Y009412D01*
X010637Y009519D01*
X010497Y009577D01*
X009866Y009577D01*
X009726Y009519D01*
X009624Y009417D01*
X009257Y009417D01*
X009226Y009448D01*
X009244Y009466D01*
X009301Y009606D01*
X009301Y009757D01*
X009244Y009897D01*
X009137Y010004D01*
X008997Y010061D01*
X008366Y010061D01*
X008226Y010004D01*
X008119Y009897D01*
X008061Y009757D01*
X008061Y009606D01*
X008119Y009466D01*
X008226Y009359D01*
X008366Y009301D01*
X008750Y009301D01*
X008950Y009101D01*
X008682Y009101D01*
X008682Y008682D01*
X009341Y008682D01*
X009341Y008714D01*
X009281Y008901D02*
X009700Y008901D01*
X009765Y009535D02*
X009272Y009535D01*
X009301Y009694D02*
X010821Y009694D01*
X010821Y009535D02*
X010598Y009535D01*
X010758Y009377D02*
X010821Y009377D01*
X010821Y009218D02*
X010801Y009218D01*
X010776Y009060D02*
X010821Y009060D01*
X010821Y008901D02*
X010663Y008901D01*
X010181Y009197D02*
X009166Y009197D01*
X008681Y009681D01*
X008833Y009218D02*
X007371Y009218D01*
X007371Y009060D02*
X008259Y009060D01*
X008208Y009377D02*
X007451Y009377D01*
X007509Y009535D02*
X008091Y009535D01*
X008061Y009694D02*
X007509Y009694D01*
X007509Y009853D02*
X008101Y009853D01*
X008244Y010011D02*
X006118Y010011D01*
X006020Y010272D02*
X006083Y010292D01*
X006142Y010322D01*
X006195Y010361D01*
X006242Y010408D01*
X006281Y010461D01*
X006311Y010520D01*
X006331Y010583D01*
X006341Y010648D01*
X006341Y010681D01*
X005682Y010681D01*
X005682Y010682D01*
X005681Y010682D01*
X005681Y011101D01*
X005408Y011101D01*
X005343Y011091D01*
X005280Y011071D01*
X005221Y011041D01*
X005168Y011002D01*
X005121Y010955D01*
X005082Y010902D01*
X005052Y010843D01*
X005032Y010780D01*
X005021Y010714D01*
X005021Y010682D01*
X005681Y010682D01*
X005681Y010681D01*
X005682Y010681D01*
X005682Y010261D01*
X005954Y010261D01*
X006020Y010272D01*
X006150Y010328D02*
X008301Y010328D01*
X008366Y010301D02*
X008997Y010301D01*
X009137Y010359D01*
X009244Y010466D01*
X009301Y010606D01*
X009301Y010757D01*
X009244Y010897D01*
X009226Y010915D01*
X009257Y010946D01*
X009624Y010946D01*
X009726Y010844D01*
X009866Y010786D01*
X010497Y010786D01*
X010637Y010844D01*
X010744Y010950D01*
X010801Y011090D01*
X010801Y011241D01*
X010744Y011381D01*
X010637Y011488D01*
X010497Y011546D01*
X009866Y011546D01*
X009726Y011488D01*
X009624Y011386D01*
X009257Y011386D01*
X009163Y011386D01*
X009244Y011466D01*
X009301Y011606D01*
X009301Y011757D01*
X009244Y011897D01*
X009137Y012004D01*
X008997Y012061D01*
X008366Y012061D01*
X008226Y012004D01*
X008119Y011897D01*
X008061Y011757D01*
X008061Y011606D01*
X008119Y011466D01*
X008226Y011359D01*
X008366Y011301D01*
X008990Y011301D01*
X008750Y011061D01*
X008366Y011061D01*
X008226Y011004D01*
X008119Y010897D01*
X008061Y010757D01*
X008061Y010606D01*
X008119Y010466D01*
X008226Y010359D01*
X008366Y010301D01*
X008111Y010487D02*
X006294Y010487D01*
X006341Y010645D02*
X008061Y010645D01*
X008081Y010804D02*
X006323Y010804D01*
X006331Y010780D02*
X006311Y010843D01*
X006281Y010902D01*
X006242Y010955D01*
X006195Y011002D01*
X006142Y011041D01*
X006083Y011071D01*
X006020Y011091D01*
X005954Y011101D01*
X005682Y011101D01*
X005682Y010682D01*
X006341Y010682D01*
X006341Y010714D01*
X006331Y010780D01*
X006234Y010962D02*
X008185Y010962D01*
X008147Y011438D02*
X006215Y011438D01*
X006244Y011466D02*
X006301Y011606D01*
X006301Y011757D01*
X006244Y011897D01*
X006137Y012004D01*
X005997Y012061D01*
X005366Y012061D01*
X005226Y012004D01*
X005119Y011897D01*
X005061Y011757D01*
X005061Y011606D01*
X005119Y011466D01*
X005226Y011359D01*
X005366Y011301D01*
X005997Y011301D01*
X006137Y011359D01*
X006244Y011466D01*
X006298Y011597D02*
X008065Y011597D01*
X008061Y011755D02*
X006301Y011755D01*
X006227Y011914D02*
X008136Y011914D01*
X008366Y012301D02*
X008226Y012359D01*
X008119Y012466D01*
X008061Y012606D01*
X008061Y012757D01*
X008119Y012897D01*
X008226Y013004D01*
X008366Y013061D01*
X008997Y013061D01*
X009137Y013004D01*
X009244Y012897D01*
X009301Y012757D01*
X009301Y012606D01*
X009244Y012466D01*
X009137Y012359D01*
X008997Y012301D01*
X008366Y012301D01*
X008196Y012389D02*
X006167Y012389D01*
X006277Y012548D02*
X008085Y012548D01*
X008061Y012706D02*
X006301Y012706D01*
X006257Y012865D02*
X008106Y012865D01*
X008274Y013023D02*
X006835Y013023D01*
X006993Y013182D02*
X010821Y013182D01*
X010821Y013341D02*
X010434Y013341D01*
X010355Y013261D02*
X010601Y013507D01*
X010601Y013681D01*
X010182Y013681D01*
X010182Y013682D01*
X010181Y013682D01*
X010181Y014101D01*
X010007Y014101D01*
X009761Y013855D01*
X009761Y013682D01*
X010181Y013682D01*
X010181Y013681D01*
X009761Y013681D01*
X009761Y013507D01*
X010007Y013261D01*
X010181Y013261D01*
X010181Y013681D01*
X010182Y013681D01*
X010182Y013261D01*
X010355Y013261D01*
X010182Y013341D02*
X010181Y013341D01*
X010181Y013499D02*
X010182Y013499D01*
X010181Y013658D02*
X010182Y013658D01*
X010182Y013682D02*
X010601Y013682D01*
X010601Y013855D01*
X010355Y014101D01*
X010182Y014101D01*
X010182Y013682D01*
X010181Y013816D02*
X010182Y013816D01*
X010181Y013975D02*
X010182Y013975D01*
X010339Y014301D02*
X010024Y014301D01*
X009864Y014461D01*
X009239Y014461D01*
X009137Y014359D01*
X008997Y014301D01*
X008366Y014301D01*
X008226Y014359D01*
X008119Y014466D01*
X008061Y014606D01*
X008061Y014757D01*
X008119Y014897D01*
X008226Y015004D01*
X008366Y015061D01*
X008997Y015061D01*
X009137Y015004D01*
X009239Y014901D01*
X009864Y014901D01*
X010024Y015061D01*
X010339Y015061D01*
X010561Y014839D01*
X010561Y014524D01*
X010339Y014301D01*
X010488Y014450D02*
X010821Y014450D01*
X010821Y014292D02*
X007401Y014292D01*
X007401Y014450D02*
X008135Y014450D01*
X008061Y014609D02*
X007420Y014609D01*
X007579Y014767D02*
X008066Y014767D01*
X008149Y014926D02*
X007737Y014926D01*
X007896Y015084D02*
X010821Y015084D01*
X010821Y014926D02*
X010474Y014926D01*
X010561Y014767D02*
X010821Y014767D01*
X010821Y014609D02*
X010561Y014609D01*
X010181Y014681D02*
X008681Y014681D01*
X008366Y014061D02*
X008226Y014004D01*
X008119Y013897D01*
X008061Y013757D01*
X008061Y013606D01*
X008119Y013466D01*
X008226Y013359D01*
X008366Y013301D01*
X008997Y013301D01*
X009137Y013359D01*
X009244Y013466D01*
X009301Y013606D01*
X009301Y013757D01*
X009244Y013897D01*
X009137Y014004D01*
X008997Y014061D01*
X008366Y014061D01*
X008197Y013975D02*
X007401Y013975D01*
X007401Y014133D02*
X010821Y014133D01*
X010821Y013975D02*
X010482Y013975D01*
X010601Y013816D02*
X010821Y013816D01*
X010821Y013658D02*
X010601Y013658D01*
X010593Y013499D02*
X010821Y013499D01*
X010821Y013023D02*
X009089Y013023D01*
X009257Y012865D02*
X010821Y012865D01*
X010821Y012706D02*
X009301Y012706D01*
X009277Y012548D02*
X010821Y012548D01*
X010821Y012389D02*
X009167Y012389D01*
X009227Y011914D02*
X010821Y011914D01*
X010821Y012072D02*
X004561Y012072D01*
X004561Y012231D02*
X010821Y012231D01*
X010821Y011755D02*
X009301Y011755D01*
X009298Y011597D02*
X010821Y011597D01*
X010821Y011438D02*
X010686Y011438D01*
X010786Y011279D02*
X010821Y011279D01*
X010821Y011121D02*
X010801Y011121D01*
X010821Y010962D02*
X010748Y010962D01*
X010821Y010804D02*
X010541Y010804D01*
X010710Y010487D02*
X010821Y010487D01*
X010821Y010645D02*
X009301Y010645D01*
X009282Y010804D02*
X009822Y010804D01*
X009653Y010487D02*
X009252Y010487D01*
X009062Y010328D02*
X009548Y010328D01*
X009521Y010181D02*
X009521Y010148D01*
X009532Y010083D01*
X009552Y010020D01*
X009582Y009961D01*
X009621Y009908D01*
X009668Y009861D01*
X009721Y009822D01*
X009780Y009792D01*
X009843Y009772D01*
X009908Y009761D01*
X010181Y009761D01*
X010181Y010181D01*
X009521Y010181D01*
X009521Y010170D02*
X003504Y010170D01*
X003346Y010328D02*
X005213Y010328D01*
X005221Y010322D02*
X005280Y010292D01*
X005343Y010272D01*
X005408Y010261D01*
X005681Y010261D01*
X005681Y010681D01*
X005021Y010681D01*
X005021Y010648D01*
X005032Y010583D01*
X005052Y010520D01*
X005082Y010461D01*
X005121Y010408D01*
X005168Y010361D01*
X005221Y010322D01*
X005069Y010487D02*
X003187Y010487D01*
X003029Y010645D02*
X005022Y010645D01*
X005040Y010804D02*
X002870Y010804D01*
X002681Y010681D02*
X003681Y009681D01*
X005681Y009681D01*
X005244Y010011D02*
X003663Y010011D01*
X003681Y009681D02*
X003181Y009181D01*
X003181Y007681D01*
X002961Y008267D02*
X001726Y008267D01*
X001889Y008426D02*
X002961Y008426D01*
X002961Y008584D02*
X001952Y008584D01*
X001958Y008743D02*
X002961Y008743D01*
X002961Y008901D02*
X001908Y008901D01*
X001777Y009060D02*
X002961Y009060D01*
X002961Y009218D02*
X000411Y009218D01*
X000411Y009060D02*
X000586Y009060D01*
X000455Y008901D02*
X000411Y008901D01*
X000632Y009308D02*
X000794Y009241D01*
X001569Y009241D01*
X001731Y009308D01*
X001854Y009432D01*
X001921Y009594D01*
X001921Y009769D01*
X001854Y009931D01*
X001731Y010054D01*
X001569Y010121D01*
X000794Y010121D01*
X000632Y010054D01*
X000508Y009931D01*
X000441Y009769D01*
X000441Y009594D01*
X000508Y009432D01*
X000632Y009308D01*
X000564Y009377D02*
X000411Y009377D01*
X000411Y009535D02*
X000466Y009535D01*
X000441Y009694D02*
X000411Y009694D01*
X000411Y009853D02*
X000476Y009853D01*
X000411Y010011D02*
X000589Y010011D01*
X000411Y010170D02*
X002882Y010170D01*
X003041Y010011D02*
X001774Y010011D01*
X001887Y009853D02*
X003199Y009853D01*
X003358Y009694D02*
X001921Y009694D01*
X001897Y009535D02*
X003224Y009535D01*
X003066Y009377D02*
X001799Y009377D01*
X001201Y009060D02*
X001161Y009060D01*
X001161Y008901D02*
X001201Y008901D01*
X001201Y008743D02*
X001161Y008743D01*
X001161Y008584D02*
X001201Y008584D01*
X001201Y008426D02*
X001161Y008426D01*
X001161Y008267D02*
X001201Y008267D01*
X001750Y010328D02*
X002724Y010328D01*
X002681Y010681D02*
X001181Y010681D01*
X001181Y012181D01*
X004181Y012181D01*
X005181Y013181D01*
X006681Y013181D01*
X007181Y013681D01*
X007181Y014681D01*
X008181Y015681D01*
X009181Y015681D01*
X009181Y016681D01*
X008773Y017146D02*
X008633Y017146D01*
X008626Y017166D02*
X008592Y017233D01*
X008548Y017294D01*
X008494Y017348D01*
X008433Y017392D01*
X008366Y017426D01*
X008294Y017450D01*
X008219Y017461D01*
X008201Y017461D01*
X008201Y016702D01*
X008161Y016702D01*
X008161Y017461D01*
X008144Y017461D01*
X008069Y017450D01*
X007997Y017426D01*
X007930Y017392D01*
X007869Y017348D01*
X007815Y017294D01*
X007771Y017233D01*
X007737Y017166D01*
X007713Y017094D01*
X007701Y017019D01*
X007701Y016701D01*
X008161Y016701D01*
X008161Y016661D01*
X007701Y016661D01*
X007701Y016344D01*
X007713Y016269D01*
X007737Y016197D01*
X007771Y016130D01*
X007815Y016069D01*
X007869Y016015D01*
X007930Y015971D01*
X007997Y015937D01*
X008069Y015913D01*
X008144Y015901D01*
X008161Y015901D01*
X008161Y016661D01*
X008201Y016661D01*
X008201Y015901D01*
X008219Y015901D01*
X008294Y015913D01*
X008366Y015937D01*
X008433Y015971D01*
X008494Y016015D01*
X008548Y016069D01*
X008592Y016130D01*
X008626Y016197D01*
X008650Y016269D01*
X008661Y016344D01*
X008661Y016661D01*
X008202Y016661D01*
X008202Y016701D01*
X008661Y016701D01*
X008661Y017019D01*
X008650Y017094D01*
X008626Y017166D01*
X008538Y017304D02*
X008882Y017304D01*
X008741Y016987D02*
X008661Y016987D01*
X008661Y016828D02*
X008741Y016828D01*
X008741Y016670D02*
X008202Y016670D01*
X008161Y016670D02*
X007621Y016670D01*
X007621Y016828D02*
X007701Y016828D01*
X007701Y016987D02*
X007621Y016987D01*
X007621Y017069D02*
X007554Y017231D01*
X007431Y017354D01*
X007269Y017421D01*
X007094Y017421D01*
X006932Y017354D01*
X006808Y017231D01*
X006741Y017069D01*
X006741Y016294D01*
X006808Y016132D01*
X006932Y016008D01*
X007094Y015941D01*
X007269Y015941D01*
X007431Y016008D01*
X007554Y016132D01*
X007621Y016294D01*
X007621Y017069D01*
X007590Y017146D02*
X007730Y017146D01*
X007825Y017304D02*
X007481Y017304D01*
X006882Y017304D02*
X006481Y017304D01*
X006431Y017354D02*
X006554Y017231D01*
X006621Y017069D01*
X006621Y016294D01*
X006554Y016132D01*
X006431Y016008D01*
X006269Y015941D01*
X006094Y015941D01*
X005932Y016008D01*
X005808Y016132D01*
X005741Y016294D01*
X005741Y017069D01*
X005808Y017231D01*
X005932Y017354D01*
X006094Y017421D01*
X006269Y017421D01*
X006431Y017354D01*
X006590Y017146D02*
X006773Y017146D01*
X006741Y016987D02*
X006621Y016987D01*
X006621Y016828D02*
X006741Y016828D01*
X006741Y016670D02*
X006621Y016670D01*
X006621Y016511D02*
X006741Y016511D01*
X006741Y016353D02*
X006621Y016353D01*
X006580Y016194D02*
X006783Y016194D01*
X006905Y016036D02*
X006458Y016036D01*
X005905Y016036D02*
X005458Y016036D01*
X005431Y016008D02*
X005554Y016132D01*
X005621Y016294D01*
X005621Y017069D01*
X005554Y017231D01*
X005431Y017354D01*
X005269Y017421D01*
X005094Y017421D01*
X004932Y017354D01*
X004808Y017231D01*
X004741Y017069D01*
X004741Y016294D01*
X004808Y016132D01*
X004932Y016008D01*
X005094Y015941D01*
X005269Y015941D01*
X005431Y016008D01*
X005580Y016194D02*
X005783Y016194D01*
X005741Y016353D02*
X005621Y016353D01*
X005621Y016511D02*
X005741Y016511D01*
X005741Y016670D02*
X005621Y016670D01*
X005621Y016828D02*
X005741Y016828D01*
X005741Y016987D02*
X005621Y016987D01*
X005590Y017146D02*
X005773Y017146D01*
X005882Y017304D02*
X005481Y017304D01*
X004882Y017304D02*
X000411Y017304D01*
X000411Y017146D02*
X004773Y017146D01*
X004741Y016987D02*
X000411Y016987D01*
X000411Y016828D02*
X004741Y016828D01*
X004741Y016670D02*
X000411Y016670D01*
X000411Y016511D02*
X004741Y016511D01*
X004741Y016353D02*
X000411Y016353D01*
X000411Y016194D02*
X004783Y016194D01*
X004905Y016036D02*
X000411Y016036D01*
X000411Y015877D02*
X008066Y015877D01*
X008161Y016036D02*
X008201Y016036D01*
X008201Y016194D02*
X008161Y016194D01*
X008161Y016353D02*
X008201Y016353D01*
X008201Y016511D02*
X008161Y016511D01*
X008161Y016828D02*
X008201Y016828D01*
X008201Y016987D02*
X008161Y016987D01*
X008161Y017146D02*
X008201Y017146D01*
X008201Y017304D02*
X008161Y017304D01*
X007701Y016511D02*
X007621Y016511D01*
X007621Y016353D02*
X007701Y016353D01*
X007738Y016194D02*
X007580Y016194D01*
X007458Y016036D02*
X007848Y016036D01*
X007908Y015719D02*
X000411Y015719D01*
X000411Y015560D02*
X000586Y015560D01*
X000455Y015402D02*
X000411Y015402D01*
X000411Y014926D02*
X000474Y014926D01*
X000411Y014767D02*
X000637Y014767D01*
X000764Y014609D02*
X000411Y014609D01*
X000411Y014450D02*
X000528Y014450D01*
X000508Y014431D02*
X000441Y014269D01*
X000441Y014094D01*
X000508Y013932D01*
X000632Y013808D01*
X000794Y013741D01*
X001569Y013741D01*
X001731Y013808D01*
X001854Y013932D01*
X001921Y014094D01*
X001921Y014269D01*
X001854Y014431D01*
X001731Y014554D01*
X001569Y014621D01*
X000794Y014621D01*
X000632Y014554D01*
X000508Y014431D01*
X000451Y014292D02*
X000411Y014292D01*
X000411Y014133D02*
X000441Y014133D01*
X000411Y013975D02*
X000491Y013975D01*
X000411Y013816D02*
X000624Y013816D01*
X000794Y013621D02*
X000632Y013554D01*
X000508Y013431D01*
X000441Y013269D01*
X000441Y013094D01*
X000508Y012932D01*
X000632Y012808D01*
X000794Y012741D01*
X001569Y012741D01*
X001731Y012808D01*
X001854Y012932D01*
X001866Y012961D01*
X004090Y012961D01*
X004273Y012961D01*
X004901Y013590D01*
X004901Y013773D01*
X004901Y014090D01*
X005198Y014387D01*
X005226Y014359D01*
X005366Y014301D01*
X005997Y014301D01*
X006137Y014359D01*
X006244Y014466D01*
X006301Y014606D01*
X006301Y014757D01*
X006244Y014897D01*
X006137Y015004D01*
X005997Y015061D01*
X005366Y015061D01*
X005226Y015004D01*
X005124Y014901D01*
X005090Y014901D01*
X004961Y014773D01*
X004961Y014772D01*
X004509Y014321D01*
X004509Y014428D01*
X004428Y014509D01*
X003935Y014509D01*
X003853Y014428D01*
X003853Y014401D01*
X003009Y014401D01*
X003009Y014428D01*
X002928Y014509D01*
X002435Y014509D01*
X002353Y014428D01*
X002353Y013935D01*
X002435Y013853D01*
X002928Y013853D01*
X003009Y013935D01*
X003009Y013961D01*
X003853Y013961D01*
X003853Y013935D01*
X003935Y013853D01*
X004428Y013853D01*
X004461Y013887D01*
X004461Y013773D01*
X004090Y013401D01*
X001866Y013401D01*
X001854Y013431D01*
X001731Y013554D01*
X001569Y013621D01*
X000794Y013621D01*
X000577Y013499D02*
X000411Y013499D01*
X000411Y013341D02*
X000471Y013341D01*
X000441Y013182D02*
X000411Y013182D01*
X000411Y013023D02*
X000471Y013023D01*
X000411Y012865D02*
X000576Y012865D01*
X000411Y012706D02*
X004395Y012706D01*
X004335Y013023D02*
X004712Y013023D01*
X004554Y012865D02*
X001787Y012865D01*
X001737Y012548D02*
X004010Y012548D01*
X004181Y013181D02*
X004681Y013681D01*
X004681Y014181D01*
X005181Y014681D01*
X005681Y014681D01*
X005149Y014926D02*
X001889Y014926D01*
X001952Y015084D02*
X007273Y015084D01*
X007115Y014926D02*
X006214Y014926D01*
X006297Y014767D02*
X006961Y014767D01*
X006961Y014609D02*
X006301Y014609D01*
X006228Y014450D02*
X006961Y014450D01*
X006961Y014292D02*
X005103Y014292D01*
X004944Y014133D02*
X006961Y014133D01*
X006961Y013975D02*
X006166Y013975D01*
X006277Y013816D02*
X006961Y013816D01*
X006846Y013658D02*
X006301Y013658D01*
X006257Y013499D02*
X006688Y013499D01*
X007152Y013341D02*
X008271Y013341D01*
X008106Y013499D02*
X007310Y013499D01*
X007401Y013658D02*
X008061Y013658D01*
X008086Y013816D02*
X007401Y013816D01*
X007432Y015243D02*
X001958Y015243D01*
X001908Y015402D02*
X007590Y015402D01*
X007749Y015560D02*
X001777Y015560D01*
X001726Y014767D02*
X004956Y014767D01*
X004798Y014609D02*
X001599Y014609D01*
X001835Y014450D02*
X002376Y014450D01*
X002353Y014292D02*
X001912Y014292D01*
X001921Y014133D02*
X002353Y014133D01*
X002353Y013975D02*
X001872Y013975D01*
X001738Y013816D02*
X004461Y013816D01*
X004346Y013658D02*
X000411Y013658D01*
X000411Y012548D02*
X000626Y012548D01*
X000491Y012389D02*
X000411Y012389D01*
X000411Y012231D02*
X000441Y012231D01*
X000450Y012072D02*
X000411Y012072D01*
X000411Y011914D02*
X000527Y011914D01*
X000411Y011755D02*
X000761Y011755D01*
X000961Y011597D02*
X000411Y011597D01*
X000411Y011438D02*
X000961Y011438D01*
X000961Y011279D02*
X000411Y011279D01*
X000411Y011121D02*
X000793Y011121D01*
X000540Y010962D02*
X000411Y010962D01*
X000411Y010804D02*
X000456Y010804D01*
X000441Y010645D02*
X000411Y010645D01*
X000411Y010487D02*
X000486Y010487D01*
X000411Y010328D02*
X000612Y010328D01*
X001401Y011279D02*
X008968Y011279D01*
X008810Y011121D02*
X001570Y011121D01*
X001401Y011438D02*
X005147Y011438D01*
X005065Y011597D02*
X001401Y011597D01*
X001602Y011755D02*
X005061Y011755D01*
X005136Y011914D02*
X004451Y011914D01*
X004700Y012389D02*
X005196Y012389D01*
X005085Y012548D02*
X004859Y012548D01*
X005017Y012706D02*
X005061Y012706D01*
X004871Y013182D02*
X004493Y013182D01*
X004652Y013341D02*
X005029Y013341D01*
X005106Y013499D02*
X004810Y013499D01*
X004901Y013658D02*
X005061Y013658D01*
X005086Y013816D02*
X004901Y013816D01*
X004901Y013975D02*
X005197Y013975D01*
X004639Y014450D02*
X004487Y014450D01*
X004181Y014181D02*
X002681Y014181D01*
X002987Y014450D02*
X003876Y014450D01*
X004188Y013499D02*
X001786Y013499D01*
X001181Y013181D02*
X004181Y013181D01*
X003912Y011914D02*
X001836Y011914D01*
X001823Y010962D02*
X005128Y010962D01*
X005681Y010962D02*
X005682Y010962D01*
X005681Y010804D02*
X005682Y010804D01*
X005681Y010645D02*
X005682Y010645D01*
X005681Y010487D02*
X005682Y010487D01*
X005681Y010328D02*
X005682Y010328D01*
X006154Y009377D02*
X006912Y009377D01*
X006853Y009535D02*
X006272Y009535D01*
X006301Y009694D02*
X006853Y009694D01*
X006853Y009853D02*
X006262Y009853D01*
X005208Y009377D02*
X003688Y009377D01*
X004474Y008426D02*
X005160Y008426D01*
X005173Y007950D02*
X004487Y007950D01*
X004536Y006999D02*
X005221Y006999D01*
X006032Y007316D02*
X006961Y007316D01*
X006961Y007474D02*
X006247Y007474D01*
X008681Y008743D02*
X008682Y008743D01*
X008681Y008901D02*
X008682Y008901D01*
X008681Y009060D02*
X008682Y009060D01*
X009262Y009853D02*
X009679Y009853D01*
X009557Y010011D02*
X009118Y010011D01*
X008681Y010681D02*
X009166Y011166D01*
X010181Y011166D01*
X010181Y010487D02*
X010182Y010487D01*
X010181Y010328D02*
X010182Y010328D01*
X010181Y010170D02*
X010182Y010170D01*
X010181Y010011D02*
X010182Y010011D01*
X010181Y009853D02*
X010182Y009853D01*
X010683Y009853D02*
X010821Y009853D01*
X010806Y010011D02*
X010821Y010011D01*
X010815Y010328D02*
X010821Y010328D01*
X009676Y011438D02*
X009215Y011438D01*
X009091Y013341D02*
X009928Y013341D01*
X009770Y013499D02*
X009257Y013499D01*
X009301Y013658D02*
X009761Y013658D01*
X009761Y013816D02*
X009277Y013816D01*
X009166Y013975D02*
X009881Y013975D01*
X009875Y014450D02*
X009228Y014450D01*
X009214Y014926D02*
X009889Y014926D01*
X009371Y015560D02*
X010821Y015560D01*
X010821Y015402D02*
X008213Y015402D01*
X008054Y015243D02*
X010821Y015243D01*
X010821Y015719D02*
X009401Y015719D01*
X009401Y015877D02*
X010821Y015877D01*
X010821Y016036D02*
X009458Y016036D01*
X009580Y016194D02*
X010821Y016194D01*
X010821Y016353D02*
X009621Y016353D01*
X009621Y016511D02*
X010821Y016511D01*
X010821Y016670D02*
X009621Y016670D01*
X009621Y016828D02*
X010821Y016828D01*
X010821Y016987D02*
X009621Y016987D01*
X009590Y017146D02*
X010821Y017146D01*
X010821Y017304D02*
X009481Y017304D01*
X008783Y016194D02*
X008625Y016194D01*
X008661Y016353D02*
X008741Y016353D01*
X008741Y016511D02*
X008661Y016511D01*
X008515Y016036D02*
X008905Y016036D01*
X010821Y017463D02*
X000411Y017463D01*
X000411Y017621D02*
X010821Y017621D01*
X010821Y017780D02*
X000411Y017780D01*
X000411Y017938D02*
X010821Y017938D01*
X001201Y015560D02*
X001161Y015560D01*
X001161Y015402D02*
X001201Y015402D01*
X001201Y015243D02*
X001161Y015243D01*
X001161Y015084D02*
X001201Y015084D01*
X001201Y014926D02*
X001161Y014926D01*
X001161Y014767D02*
X001201Y014767D01*
X002182Y001976D02*
X002182Y001482D01*
X002181Y001482D01*
X002181Y001481D01*
X002182Y001481D01*
X002182Y001482D01*
X002676Y001482D01*
X002676Y001686D01*
X002386Y001976D01*
X002182Y001976D01*
X002181Y001925D02*
X002182Y001925D01*
X002181Y001767D02*
X002182Y001767D01*
X002181Y001608D02*
X002182Y001608D01*
X002182Y001481D02*
X002676Y001481D01*
X002676Y001276D01*
X002386Y000986D01*
X002182Y000986D01*
X002182Y001481D01*
X002181Y001450D02*
X002182Y001450D01*
X002181Y001291D02*
X002182Y001291D01*
X002181Y001133D02*
X002182Y001133D01*
X002533Y001133D02*
X003961Y001133D01*
X003961Y001291D02*
X002676Y001291D01*
X002676Y001450D02*
X003961Y001450D01*
X003961Y001608D02*
X002676Y001608D01*
X002596Y001767D02*
X003961Y001767D01*
X003961Y001925D02*
X002437Y001925D01*
X009810Y000499D02*
X010821Y000499D01*
X010821Y000657D02*
X009968Y000657D01*
X010601Y001608D02*
X010821Y001608D01*
X010821Y001767D02*
X010725Y001767D01*
X010738Y000816D02*
X010821Y000816D01*
D16*
X007181Y007681D02*
X006681Y008181D01*
X004181Y008181D01*
X007181Y008681D02*
X007681Y008181D01*
X010181Y008181D01*
X007181Y008681D02*
X007181Y009681D01*
D17*
X007181Y009681D03*
X004181Y014181D03*
X002681Y014181D03*
X002181Y007681D03*
M02*
