G75*
G70*
%OFA0B0*%
%FSLAX24Y24*%
%IPPOS*%
%LPD*%
%AMOC8*
5,1,8,0,0,1.08239X$1,22.5*
%
%ADD10C,0.0000*%
%ADD11C,0.0060*%
%ADD12C,0.0070*%
%ADD13R,0.0240X0.0340*%
%ADD14C,0.0100*%
%ADD15C,0.0050*%
%ADD16C,0.0010*%
D10*
X000181Y000181D02*
X000181Y018177D01*
X011051Y018177D01*
X011051Y000181D01*
X000181Y000181D01*
D11*
X000581Y002181D02*
X000583Y002261D01*
X000589Y002340D01*
X000599Y002419D01*
X000613Y002498D01*
X000630Y002576D01*
X000652Y002653D01*
X000677Y002728D01*
X000707Y002802D01*
X000739Y002875D01*
X000776Y002946D01*
X000816Y003015D01*
X000859Y003082D01*
X000906Y003147D01*
X000955Y003209D01*
X001008Y003269D01*
X001064Y003326D01*
X001122Y003381D01*
X001183Y003432D01*
X001247Y003480D01*
X001313Y003525D01*
X001381Y003567D01*
X001451Y003605D01*
X001523Y003639D01*
X001596Y003670D01*
X001671Y003698D01*
X001748Y003721D01*
X001825Y003741D01*
X001903Y003757D01*
X001982Y003769D01*
X002061Y003777D01*
X002141Y003781D01*
X002221Y003781D01*
X002301Y003777D01*
X002380Y003769D01*
X002459Y003757D01*
X002537Y003741D01*
X002614Y003721D01*
X002691Y003698D01*
X002766Y003670D01*
X002839Y003639D01*
X002911Y003605D01*
X002981Y003567D01*
X003049Y003525D01*
X003115Y003480D01*
X003179Y003432D01*
X003240Y003381D01*
X003298Y003326D01*
X003354Y003269D01*
X003407Y003209D01*
X003456Y003147D01*
X003503Y003082D01*
X003546Y003015D01*
X003586Y002946D01*
X003623Y002875D01*
X003655Y002802D01*
X003685Y002728D01*
X003710Y002653D01*
X003732Y002576D01*
X003749Y002498D01*
X003763Y002419D01*
X003773Y002340D01*
X003779Y002261D01*
X003781Y002181D01*
X003779Y002101D01*
X003773Y002022D01*
X003763Y001943D01*
X003749Y001864D01*
X003732Y001786D01*
X003710Y001709D01*
X003685Y001634D01*
X003655Y001560D01*
X003623Y001487D01*
X003586Y001416D01*
X003546Y001347D01*
X003503Y001280D01*
X003456Y001215D01*
X003407Y001153D01*
X003354Y001093D01*
X003298Y001036D01*
X003240Y000981D01*
X003179Y000930D01*
X003115Y000882D01*
X003049Y000837D01*
X002981Y000795D01*
X002911Y000757D01*
X002839Y000723D01*
X002766Y000692D01*
X002691Y000664D01*
X002614Y000641D01*
X002537Y000621D01*
X002459Y000605D01*
X002380Y000593D01*
X002301Y000585D01*
X002221Y000581D01*
X002141Y000581D01*
X002061Y000585D01*
X001982Y000593D01*
X001903Y000605D01*
X001825Y000621D01*
X001748Y000641D01*
X001671Y000664D01*
X001596Y000692D01*
X001523Y000723D01*
X001451Y000757D01*
X001381Y000795D01*
X001313Y000837D01*
X001247Y000882D01*
X001183Y000930D01*
X001122Y000981D01*
X001064Y001036D01*
X001008Y001093D01*
X000955Y001153D01*
X000906Y001215D01*
X000859Y001280D01*
X000816Y001347D01*
X000776Y001416D01*
X000739Y001487D01*
X000707Y001560D01*
X000677Y001634D01*
X000652Y001709D01*
X000630Y001786D01*
X000613Y001864D01*
X000599Y001943D01*
X000589Y002022D01*
X000583Y002101D01*
X000581Y002181D01*
X002481Y003381D02*
X002781Y003381D01*
X002631Y003531D02*
X002631Y003231D01*
X003731Y004031D02*
X003731Y004181D01*
X003781Y004231D01*
X003781Y006131D01*
X003731Y006181D01*
X003731Y006331D01*
X003733Y006348D01*
X003737Y006365D01*
X003744Y006381D01*
X003754Y006395D01*
X003767Y006408D01*
X003781Y006418D01*
X003797Y006425D01*
X003814Y006429D01*
X003831Y006431D01*
X004531Y006431D01*
X004548Y006429D01*
X004565Y006425D01*
X004581Y006418D01*
X004595Y006408D01*
X004608Y006395D01*
X004618Y006381D01*
X004625Y006365D01*
X004629Y006348D01*
X004631Y006331D01*
X004631Y006181D01*
X004581Y006131D01*
X004581Y004231D01*
X004631Y004181D01*
X004631Y004031D01*
X004629Y004014D01*
X004625Y003997D01*
X004618Y003981D01*
X004608Y003967D01*
X004595Y003954D01*
X004581Y003944D01*
X004565Y003937D01*
X004548Y003933D01*
X004531Y003931D01*
X003831Y003931D01*
X003814Y003933D01*
X003797Y003937D01*
X003781Y003944D01*
X003767Y003954D01*
X003754Y003967D01*
X003744Y003981D01*
X003737Y003997D01*
X003733Y004014D01*
X003731Y004031D01*
X001681Y005431D02*
X001681Y005931D01*
X001431Y006181D01*
X001681Y006431D01*
X001681Y006931D01*
X001431Y007181D01*
X000931Y007181D01*
X000681Y006931D01*
X000681Y006431D01*
X000931Y006181D01*
X001431Y006181D01*
X000931Y006181D02*
X000681Y005931D01*
X000681Y005431D01*
X000931Y005181D01*
X001431Y005181D01*
X001681Y005431D01*
X001431Y008181D02*
X000931Y008181D01*
X000681Y008431D01*
X000681Y008931D01*
X000931Y009181D01*
X000681Y009431D01*
X000681Y009931D01*
X000931Y010181D01*
X000681Y010431D01*
X000681Y010931D01*
X000931Y011181D01*
X001431Y011181D01*
X001681Y010931D01*
X001681Y010431D01*
X001431Y010181D01*
X001681Y009931D01*
X001681Y009431D01*
X001431Y009181D01*
X001681Y008931D01*
X001681Y008431D01*
X001431Y008181D01*
X001431Y009181D02*
X000931Y009181D01*
X000931Y010181D02*
X001431Y010181D01*
X001431Y011681D02*
X000931Y011681D01*
X000681Y011931D01*
X000681Y012431D01*
X000931Y012681D01*
X000681Y012931D01*
X000681Y013431D01*
X000931Y013681D01*
X001431Y013681D01*
X001681Y013431D01*
X001681Y012931D01*
X001431Y012681D01*
X001681Y012431D01*
X001681Y011931D01*
X001431Y011681D01*
X001431Y012681D02*
X000931Y012681D01*
X000931Y013681D02*
X000681Y013931D01*
X000681Y014431D01*
X000931Y014681D01*
X000681Y014931D01*
X000681Y015431D01*
X000931Y015681D01*
X001431Y015681D01*
X001681Y015431D01*
X001681Y014931D01*
X001431Y014681D01*
X001681Y014431D01*
X001681Y013931D01*
X001431Y013681D01*
X001431Y014681D02*
X000931Y014681D01*
X003731Y011331D02*
X003731Y011181D01*
X003781Y011131D01*
X003781Y009231D01*
X003731Y009181D01*
X003731Y009031D01*
X003733Y009014D01*
X003737Y008997D01*
X003744Y008981D01*
X003754Y008967D01*
X003767Y008954D01*
X003781Y008944D01*
X003797Y008937D01*
X003814Y008933D01*
X003831Y008931D01*
X004531Y008931D01*
X004548Y008933D01*
X004565Y008937D01*
X004581Y008944D01*
X004595Y008954D01*
X004608Y008967D01*
X004618Y008981D01*
X004625Y008997D01*
X004629Y009014D01*
X004631Y009031D01*
X004631Y009181D01*
X004581Y009231D01*
X004581Y011131D01*
X004631Y011181D01*
X004631Y011331D01*
X004629Y011348D01*
X004625Y011365D01*
X004618Y011381D01*
X004608Y011395D01*
X004595Y011408D01*
X004581Y011418D01*
X004565Y011425D01*
X004548Y011429D01*
X004531Y011431D01*
X003831Y011431D01*
X003814Y011429D01*
X003797Y011425D01*
X003781Y011418D01*
X003767Y011408D01*
X003754Y011395D01*
X003744Y011381D01*
X003737Y011365D01*
X003733Y011348D01*
X003731Y011331D01*
X006181Y015181D02*
X006181Y001181D01*
X006681Y001181D01*
X006683Y001225D01*
X006689Y001268D01*
X006698Y001310D01*
X006711Y001352D01*
X006728Y001392D01*
X006748Y001431D01*
X006771Y001468D01*
X006798Y001502D01*
X006827Y001535D01*
X006860Y001564D01*
X006894Y001591D01*
X006931Y001614D01*
X006970Y001634D01*
X007010Y001651D01*
X007052Y001664D01*
X007094Y001673D01*
X007137Y001679D01*
X007181Y001681D01*
X007225Y001679D01*
X007268Y001673D01*
X007310Y001664D01*
X007352Y001651D01*
X007392Y001634D01*
X007431Y001614D01*
X007468Y001591D01*
X007502Y001564D01*
X007535Y001535D01*
X007564Y001502D01*
X007591Y001468D01*
X007614Y001431D01*
X007634Y001392D01*
X007651Y001352D01*
X007664Y001310D01*
X007673Y001268D01*
X007679Y001225D01*
X007681Y001181D01*
X008181Y001181D01*
X008181Y001231D02*
X008181Y015181D01*
X006181Y015181D01*
X005931Y016181D02*
X005681Y016431D01*
X005431Y016181D01*
X004931Y016181D01*
X004681Y016431D01*
X004681Y016931D01*
X004931Y017181D01*
X005431Y017181D01*
X005681Y016931D01*
X005931Y017181D01*
X006431Y017181D01*
X006681Y016931D01*
X006931Y017181D01*
X007431Y017181D01*
X007681Y016931D01*
X007931Y017181D01*
X008431Y017181D01*
X008681Y016931D01*
X008931Y017181D01*
X009431Y017181D01*
X009681Y016931D01*
X009681Y016431D01*
X009431Y016181D01*
X008931Y016181D01*
X008681Y016431D01*
X008431Y016181D01*
X007931Y016181D01*
X007681Y016431D01*
X007681Y016931D01*
X007681Y016431D02*
X007431Y016181D01*
X006931Y016181D01*
X006681Y016431D01*
X006431Y016181D01*
X005931Y016181D01*
X005681Y016431D02*
X005681Y016931D01*
X006681Y016931D02*
X006681Y016431D01*
X008681Y016431D02*
X008681Y016931D01*
X009781Y015131D02*
X010581Y015131D01*
X010598Y015129D01*
X010615Y015125D01*
X010631Y015118D01*
X010645Y015108D01*
X010658Y015095D01*
X010668Y015081D01*
X010675Y015065D01*
X010679Y015048D01*
X010681Y015031D01*
X010681Y013331D01*
X010679Y013314D01*
X010675Y013297D01*
X010668Y013281D01*
X010658Y013267D01*
X010645Y013254D01*
X010631Y013244D01*
X010615Y013237D01*
X010598Y013233D01*
X010581Y013231D01*
X009781Y013231D01*
X009764Y013233D01*
X009747Y013237D01*
X009731Y013244D01*
X009717Y013254D01*
X009704Y013267D01*
X009694Y013281D01*
X009687Y013297D01*
X009683Y013314D01*
X009681Y013331D01*
X009681Y015031D01*
X009683Y015048D01*
X009687Y015065D01*
X009694Y015081D01*
X009704Y015095D01*
X009717Y015108D01*
X009731Y015118D01*
X009747Y015125D01*
X009764Y015129D01*
X009781Y015131D01*
X010181Y014331D02*
X010181Y014281D01*
X010181Y014081D02*
X010181Y014031D01*
X009831Y007431D02*
X010531Y007431D01*
X010548Y007429D01*
X010565Y007425D01*
X010581Y007418D01*
X010595Y007408D01*
X010608Y007395D01*
X010618Y007381D01*
X010625Y007365D01*
X010629Y007348D01*
X010631Y007331D01*
X010631Y007181D01*
X010581Y007131D01*
X010581Y005231D01*
X010631Y005181D01*
X010631Y005031D01*
X010629Y005014D01*
X010625Y004997D01*
X010618Y004981D01*
X010608Y004967D01*
X010595Y004954D01*
X010581Y004944D01*
X010565Y004937D01*
X010548Y004933D01*
X010531Y004931D01*
X009831Y004931D01*
X009814Y004933D01*
X009797Y004937D01*
X009781Y004944D01*
X009767Y004954D01*
X009754Y004967D01*
X009744Y004981D01*
X009737Y004997D01*
X009733Y005014D01*
X009731Y005031D01*
X009731Y005181D01*
X009781Y005231D01*
X009781Y007131D01*
X009731Y007181D01*
X009731Y007331D01*
X009733Y007348D01*
X009737Y007365D01*
X009744Y007381D01*
X009754Y007395D01*
X009767Y007408D01*
X009781Y007418D01*
X009797Y007425D01*
X009814Y007429D01*
X009831Y007431D01*
X009931Y003681D02*
X010431Y003681D01*
X010681Y003431D01*
X010681Y002931D01*
X010431Y002681D01*
X010681Y002431D01*
X010681Y001931D01*
X010431Y001681D01*
X010681Y001431D01*
X010681Y000931D01*
X010431Y000681D01*
X009931Y000681D01*
X009681Y000931D01*
X009681Y001431D01*
X009931Y001681D01*
X009681Y001931D01*
X009681Y002431D01*
X009931Y002681D01*
X009681Y002931D01*
X009681Y003431D01*
X009931Y003681D01*
X009931Y002681D02*
X010431Y002681D01*
X010431Y001681D02*
X009931Y001681D01*
D12*
X007396Y005498D02*
X007396Y005708D01*
X007396Y005603D02*
X006766Y005603D01*
X006766Y005498D02*
X006766Y005708D01*
X006871Y005927D02*
X006766Y006032D01*
X006766Y006243D01*
X006871Y006348D01*
X006976Y006572D02*
X006766Y006782D01*
X007396Y006782D01*
X007396Y006572D02*
X007396Y006992D01*
X007291Y006348D02*
X007396Y006243D01*
X007396Y006032D01*
X007291Y005927D01*
X006871Y005927D01*
D13*
X004181Y006601D03*
X004181Y008761D03*
X004181Y011601D03*
X004181Y003761D03*
X010181Y004761D03*
X010181Y007601D03*
D14*
X010181Y014081D02*
X009881Y014081D01*
X009881Y014281D02*
X010181Y014281D01*
X010481Y014281D01*
X010481Y014081D02*
X010181Y014081D01*
D15*
X010811Y010674D02*
X009551Y010674D01*
X004501Y016986D02*
X004576Y017061D01*
X004576Y017137D01*
X004501Y017212D01*
X004351Y017212D01*
X004276Y017287D01*
X004276Y017362D01*
X004351Y017437D01*
X004501Y017437D01*
X004576Y017362D01*
X004501Y016986D02*
X004351Y016986D01*
X004276Y017061D01*
X004116Y017061D02*
X004116Y017437D01*
X004116Y017061D02*
X004041Y016986D01*
X003891Y016986D01*
X003816Y017061D01*
X003816Y017437D01*
X003656Y017362D02*
X003656Y017287D01*
X003580Y017212D01*
X003355Y017212D01*
X003355Y017437D02*
X003355Y016986D01*
X003580Y016986D01*
X003656Y017061D01*
X003656Y017137D01*
X003580Y017212D01*
X003656Y017362D02*
X003580Y017437D01*
X003355Y017437D01*
X002322Y016377D02*
X002397Y016302D01*
X002397Y016227D01*
X002322Y016152D01*
X002097Y016152D01*
X001937Y016077D02*
X001937Y016001D01*
X001862Y015926D01*
X001712Y015926D01*
X001637Y016001D01*
X001712Y016152D02*
X001637Y016227D01*
X001637Y016302D01*
X001712Y016377D01*
X001862Y016377D01*
X001937Y016302D01*
X001862Y016152D02*
X001937Y016077D01*
X001862Y016152D02*
X001712Y016152D01*
X001477Y016001D02*
X001402Y015926D01*
X001251Y015926D01*
X001176Y016001D01*
X001176Y016377D01*
X001477Y016377D02*
X001477Y016001D01*
X002097Y015926D02*
X002322Y015926D01*
X002397Y016001D01*
X002397Y016077D01*
X002322Y016152D01*
X002322Y016377D02*
X002097Y016377D01*
X002097Y015926D01*
X002076Y007937D02*
X001776Y007937D01*
X001926Y007937D02*
X001926Y007486D01*
X001616Y007561D02*
X001616Y007862D01*
X001541Y007937D01*
X001391Y007937D01*
X001316Y007862D01*
X001316Y007561D01*
X001391Y007486D01*
X001541Y007486D01*
X001616Y007561D01*
X001156Y007712D02*
X001080Y007637D01*
X000855Y007637D01*
X000855Y007486D02*
X000855Y007937D01*
X001080Y007937D01*
X001156Y007862D01*
X001156Y007712D01*
X001155Y004937D02*
X000855Y004937D01*
X000855Y004486D01*
X001155Y004486D01*
X001316Y004561D02*
X001391Y004486D01*
X001541Y004486D01*
X001616Y004561D01*
X001616Y004637D01*
X001541Y004712D01*
X001391Y004712D01*
X001316Y004787D01*
X001316Y004862D01*
X001391Y004937D01*
X001541Y004937D01*
X001616Y004862D01*
X001776Y004937D02*
X002076Y004937D01*
X001926Y004937D02*
X001926Y004486D01*
X001005Y004712D02*
X000855Y004712D01*
X000695Y004937D02*
X000395Y004937D01*
X000545Y004937D02*
X000545Y004486D01*
X007702Y000937D02*
X007702Y000486D01*
X007852Y000787D02*
X008002Y000937D01*
X008002Y000486D01*
X008162Y000486D02*
X008312Y000486D01*
X008237Y000486D02*
X008237Y000937D01*
X008162Y000937D02*
X008312Y000937D01*
X008469Y000937D02*
X008694Y000937D01*
X008769Y000862D01*
X008769Y000561D01*
X008694Y000486D01*
X008469Y000486D01*
X008469Y000937D01*
X008929Y000937D02*
X009080Y000937D01*
X009004Y000937D02*
X009004Y000486D01*
X008929Y000486D02*
X009080Y000486D01*
X007852Y000787D02*
X007702Y000937D01*
D16*
X010186Y009060D02*
X010186Y009100D01*
X010186Y009099D02*
X010232Y009102D01*
X010278Y009109D01*
X010323Y009120D01*
X010367Y009134D01*
X010409Y009151D01*
X010450Y009172D01*
X010490Y009196D01*
X010527Y009223D01*
X010562Y009254D01*
X010594Y009286D01*
X010624Y009322D01*
X010650Y009359D01*
X010674Y009399D01*
X010709Y009381D01*
X010709Y009380D01*
X010686Y009341D01*
X010660Y009303D01*
X010631Y009268D01*
X010599Y009234D01*
X010565Y009203D01*
X010529Y009175D01*
X010491Y009150D01*
X010451Y009127D01*
X010410Y009108D01*
X010367Y009091D01*
X010323Y009078D01*
X010278Y009068D01*
X010233Y009062D01*
X010187Y009059D01*
X010187Y009068D01*
X010232Y009071D01*
X010277Y009077D01*
X010321Y009087D01*
X010364Y009100D01*
X010406Y009116D01*
X010447Y009135D01*
X010487Y009157D01*
X010524Y009182D01*
X010560Y009210D01*
X010593Y009241D01*
X010624Y009274D01*
X010652Y009309D01*
X010678Y009346D01*
X010701Y009385D01*
X010693Y009389D01*
X010669Y009348D01*
X010641Y009309D01*
X010610Y009272D01*
X010577Y009238D01*
X010541Y009206D01*
X010502Y009178D01*
X010461Y009153D01*
X010418Y009131D01*
X010374Y009113D01*
X010328Y009098D01*
X010282Y009087D01*
X010234Y009080D01*
X010187Y009077D01*
X010186Y009086D01*
X010234Y009089D01*
X010280Y009096D01*
X010326Y009107D01*
X010371Y009121D01*
X010415Y009139D01*
X010457Y009161D01*
X010497Y009185D01*
X010535Y009213D01*
X010571Y009244D01*
X010604Y009278D01*
X010634Y009314D01*
X010661Y009353D01*
X010685Y009393D01*
X010677Y009397D01*
X010654Y009357D01*
X010627Y009319D01*
X010597Y009284D01*
X010564Y009251D01*
X010529Y009220D01*
X010492Y009193D01*
X010452Y009169D01*
X010411Y009147D01*
X010368Y009130D01*
X010324Y009116D01*
X010279Y009105D01*
X010233Y009098D01*
X010186Y009095D01*
X009654Y009381D02*
X009690Y009400D01*
X009689Y009399D02*
X009713Y009359D01*
X009739Y009322D01*
X009769Y009286D01*
X009801Y009254D01*
X009836Y009223D01*
X009873Y009196D01*
X009913Y009172D01*
X009954Y009151D01*
X009996Y009134D01*
X010040Y009120D01*
X010085Y009109D01*
X010131Y009102D01*
X010177Y009099D01*
X010177Y009060D01*
X010176Y009059D01*
X010130Y009062D01*
X010085Y009068D01*
X010040Y009078D01*
X009996Y009091D01*
X009953Y009108D01*
X009912Y009127D01*
X009872Y009150D01*
X009834Y009175D01*
X009798Y009203D01*
X009764Y009234D01*
X009732Y009268D01*
X009703Y009303D01*
X009677Y009341D01*
X009654Y009380D01*
X009662Y009385D01*
X009685Y009346D01*
X009711Y009309D01*
X009739Y009274D01*
X009770Y009241D01*
X009803Y009210D01*
X009839Y009182D01*
X009876Y009157D01*
X009916Y009135D01*
X009957Y009116D01*
X009999Y009100D01*
X010042Y009087D01*
X010086Y009077D01*
X010131Y009071D01*
X010176Y009068D01*
X010176Y009077D01*
X010129Y009080D01*
X010081Y009087D01*
X010035Y009098D01*
X009989Y009113D01*
X009945Y009131D01*
X009902Y009153D01*
X009861Y009178D01*
X009822Y009206D01*
X009786Y009238D01*
X009753Y009272D01*
X009722Y009309D01*
X009694Y009348D01*
X009670Y009389D01*
X009678Y009393D01*
X009702Y009353D01*
X009729Y009314D01*
X009759Y009278D01*
X009792Y009244D01*
X009828Y009213D01*
X009866Y009185D01*
X009906Y009161D01*
X009948Y009139D01*
X009992Y009121D01*
X010037Y009107D01*
X010083Y009096D01*
X010129Y009089D01*
X010177Y009086D01*
X010177Y009095D01*
X010130Y009098D01*
X010084Y009105D01*
X010039Y009116D01*
X009995Y009130D01*
X009952Y009147D01*
X009911Y009169D01*
X009871Y009193D01*
X009834Y009220D01*
X009799Y009251D01*
X009766Y009284D01*
X009736Y009319D01*
X009709Y009357D01*
X009686Y009397D01*
X010713Y009390D02*
X010677Y009409D01*
X010678Y009408D02*
X010711Y009473D01*
X010741Y009539D01*
X010768Y009607D01*
X010792Y009676D01*
X010813Y009745D01*
X010830Y009816D01*
X010845Y009887D01*
X010856Y009959D01*
X010864Y010031D01*
X010869Y010104D01*
X010870Y010177D01*
X010909Y010176D01*
X010910Y010177D01*
X010909Y010102D01*
X010904Y010028D01*
X010896Y009954D01*
X010884Y009880D01*
X010869Y009807D01*
X010851Y009735D01*
X010830Y009663D01*
X010805Y009593D01*
X010778Y009524D01*
X010747Y009456D01*
X010713Y009389D01*
X010705Y009394D01*
X010739Y009460D01*
X010769Y009527D01*
X010797Y009596D01*
X010821Y009666D01*
X010842Y009737D01*
X010860Y009809D01*
X010875Y009882D01*
X010887Y009955D01*
X010895Y010029D01*
X010900Y010103D01*
X010901Y010177D01*
X010892Y010177D01*
X010891Y010103D01*
X010886Y010030D01*
X010878Y009956D01*
X010866Y009883D01*
X010852Y009811D01*
X010834Y009740D01*
X010813Y009669D01*
X010788Y009599D01*
X010761Y009531D01*
X010731Y009464D01*
X010697Y009398D01*
X010689Y009402D01*
X010723Y009467D01*
X010753Y009534D01*
X010780Y009602D01*
X010804Y009672D01*
X010825Y009742D01*
X010843Y009813D01*
X010857Y009885D01*
X010869Y009957D01*
X010877Y010030D01*
X010882Y010103D01*
X010883Y010177D01*
X010874Y010177D01*
X010873Y010104D01*
X010868Y010031D01*
X010860Y009959D01*
X010849Y009887D01*
X010834Y009815D01*
X010816Y009744D01*
X010796Y009674D01*
X010772Y009606D01*
X010745Y009538D01*
X010714Y009471D01*
X010681Y009406D01*
X009454Y010176D02*
X009494Y010176D01*
X009493Y010177D02*
X009494Y010104D01*
X009499Y010031D01*
X009507Y009959D01*
X009518Y009887D01*
X009533Y009816D01*
X009550Y009745D01*
X009571Y009676D01*
X009595Y009607D01*
X009622Y009539D01*
X009652Y009473D01*
X009685Y009408D01*
X009650Y009390D01*
X009650Y009389D01*
X009616Y009456D01*
X009585Y009524D01*
X009558Y009593D01*
X009533Y009663D01*
X009512Y009735D01*
X009494Y009807D01*
X009479Y009880D01*
X009467Y009954D01*
X009459Y010028D01*
X009454Y010102D01*
X009453Y010177D01*
X009462Y010177D01*
X009463Y010103D01*
X009468Y010029D01*
X009476Y009955D01*
X009488Y009882D01*
X009503Y009809D01*
X009521Y009737D01*
X009542Y009666D01*
X009566Y009596D01*
X009594Y009527D01*
X009624Y009460D01*
X009658Y009394D01*
X009666Y009398D01*
X009632Y009464D01*
X009602Y009531D01*
X009575Y009599D01*
X009550Y009669D01*
X009529Y009740D01*
X009511Y009811D01*
X009497Y009883D01*
X009485Y009956D01*
X009477Y010030D01*
X009472Y010103D01*
X009471Y010177D01*
X009480Y010177D01*
X009481Y010103D01*
X009486Y010030D01*
X009494Y009957D01*
X009506Y009885D01*
X009520Y009813D01*
X009538Y009742D01*
X009559Y009672D01*
X009583Y009602D01*
X009610Y009534D01*
X009640Y009467D01*
X009674Y009402D01*
X009682Y009406D01*
X009649Y009471D01*
X009618Y009538D01*
X009591Y009606D01*
X009567Y009674D01*
X009547Y009744D01*
X009529Y009815D01*
X009514Y009887D01*
X009503Y009959D01*
X009495Y010031D01*
X009490Y010104D01*
X009489Y010177D01*
X010909Y010187D02*
X010869Y010187D01*
X010870Y010186D02*
X010869Y010259D01*
X010864Y010332D01*
X010856Y010404D01*
X010845Y010476D01*
X010830Y010547D01*
X010813Y010618D01*
X010792Y010687D01*
X010768Y010756D01*
X010741Y010824D01*
X010711Y010890D01*
X010678Y010955D01*
X010713Y010973D01*
X010713Y010974D01*
X010747Y010907D01*
X010778Y010839D01*
X010805Y010770D01*
X010830Y010700D01*
X010851Y010628D01*
X010869Y010556D01*
X010884Y010483D01*
X010896Y010409D01*
X010904Y010335D01*
X010909Y010261D01*
X010910Y010186D01*
X010901Y010186D01*
X010900Y010260D01*
X010895Y010334D01*
X010887Y010408D01*
X010875Y010481D01*
X010860Y010554D01*
X010842Y010626D01*
X010821Y010697D01*
X010797Y010767D01*
X010769Y010836D01*
X010739Y010903D01*
X010705Y010969D01*
X010697Y010965D01*
X010731Y010899D01*
X010761Y010832D01*
X010788Y010764D01*
X010813Y010694D01*
X010834Y010623D01*
X010852Y010552D01*
X010866Y010480D01*
X010878Y010407D01*
X010886Y010333D01*
X010891Y010260D01*
X010892Y010186D01*
X010883Y010186D01*
X010882Y010260D01*
X010877Y010333D01*
X010869Y010406D01*
X010857Y010478D01*
X010843Y010550D01*
X010825Y010621D01*
X010804Y010691D01*
X010780Y010761D01*
X010753Y010829D01*
X010723Y010896D01*
X010689Y010961D01*
X010681Y010957D01*
X010714Y010892D01*
X010745Y010825D01*
X010772Y010757D01*
X010796Y010689D01*
X010816Y010619D01*
X010834Y010548D01*
X010849Y010476D01*
X010860Y010404D01*
X010868Y010332D01*
X010873Y010259D01*
X010874Y010186D01*
X009650Y010973D02*
X009686Y010954D01*
X009685Y010955D02*
X009652Y010890D01*
X009622Y010824D01*
X009595Y010756D01*
X009571Y010687D01*
X009550Y010618D01*
X009533Y010547D01*
X009518Y010476D01*
X009507Y010404D01*
X009499Y010332D01*
X009494Y010259D01*
X009493Y010186D01*
X009454Y010187D01*
X009453Y010186D01*
X009454Y010261D01*
X009459Y010335D01*
X009467Y010409D01*
X009479Y010483D01*
X009494Y010556D01*
X009512Y010628D01*
X009533Y010700D01*
X009558Y010770D01*
X009585Y010839D01*
X009616Y010907D01*
X009650Y010974D01*
X009658Y010969D01*
X009624Y010903D01*
X009594Y010836D01*
X009566Y010767D01*
X009542Y010697D01*
X009521Y010626D01*
X009503Y010554D01*
X009488Y010481D01*
X009476Y010408D01*
X009468Y010334D01*
X009463Y010260D01*
X009462Y010186D01*
X009471Y010186D01*
X009472Y010260D01*
X009477Y010333D01*
X009485Y010407D01*
X009497Y010480D01*
X009511Y010552D01*
X009529Y010623D01*
X009550Y010694D01*
X009575Y010764D01*
X009602Y010832D01*
X009632Y010899D01*
X009666Y010965D01*
X009674Y010961D01*
X009640Y010896D01*
X009610Y010829D01*
X009583Y010761D01*
X009559Y010691D01*
X009538Y010621D01*
X009520Y010550D01*
X009506Y010478D01*
X009494Y010406D01*
X009486Y010333D01*
X009481Y010260D01*
X009480Y010186D01*
X009489Y010186D01*
X009490Y010259D01*
X009495Y010332D01*
X009503Y010404D01*
X009514Y010476D01*
X009529Y010548D01*
X009547Y010619D01*
X009567Y010689D01*
X009591Y010757D01*
X009618Y010825D01*
X009649Y010892D01*
X009682Y010957D01*
X010709Y010982D02*
X010673Y010963D01*
X010674Y010964D02*
X010650Y011004D01*
X010624Y011041D01*
X010594Y011077D01*
X010562Y011109D01*
X010527Y011140D01*
X010490Y011167D01*
X010450Y011191D01*
X010409Y011212D01*
X010367Y011229D01*
X010323Y011243D01*
X010278Y011254D01*
X010232Y011261D01*
X010186Y011264D01*
X010186Y011303D01*
X010187Y011304D01*
X010233Y011301D01*
X010278Y011295D01*
X010323Y011285D01*
X010367Y011272D01*
X010410Y011255D01*
X010451Y011236D01*
X010491Y011213D01*
X010529Y011188D01*
X010565Y011160D01*
X010599Y011129D01*
X010631Y011095D01*
X010660Y011060D01*
X010686Y011022D01*
X010709Y010983D01*
X010701Y010978D01*
X010678Y011017D01*
X010652Y011054D01*
X010624Y011089D01*
X010593Y011122D01*
X010560Y011153D01*
X010524Y011181D01*
X010487Y011206D01*
X010447Y011228D01*
X010406Y011247D01*
X010364Y011263D01*
X010321Y011276D01*
X010277Y011286D01*
X010232Y011292D01*
X010187Y011295D01*
X010187Y011286D01*
X010234Y011283D01*
X010282Y011276D01*
X010328Y011265D01*
X010374Y011250D01*
X010418Y011232D01*
X010461Y011210D01*
X010502Y011185D01*
X010541Y011157D01*
X010577Y011125D01*
X010610Y011091D01*
X010641Y011054D01*
X010669Y011015D01*
X010693Y010974D01*
X010685Y010970D01*
X010661Y011010D01*
X010634Y011049D01*
X010604Y011085D01*
X010571Y011119D01*
X010535Y011150D01*
X010497Y011178D01*
X010457Y011202D01*
X010415Y011224D01*
X010371Y011242D01*
X010326Y011256D01*
X010280Y011267D01*
X010234Y011274D01*
X010186Y011277D01*
X010186Y011268D01*
X010233Y011265D01*
X010279Y011258D01*
X010324Y011247D01*
X010368Y011233D01*
X010411Y011216D01*
X010452Y011194D01*
X010492Y011170D01*
X010529Y011143D01*
X010564Y011112D01*
X010597Y011079D01*
X010627Y011044D01*
X010654Y011006D01*
X010677Y010966D01*
X010177Y011303D02*
X010177Y011263D01*
X010177Y011264D02*
X010131Y011261D01*
X010085Y011254D01*
X010040Y011243D01*
X009996Y011229D01*
X009954Y011212D01*
X009913Y011191D01*
X009873Y011167D01*
X009836Y011140D01*
X009801Y011109D01*
X009769Y011077D01*
X009739Y011041D01*
X009713Y011004D01*
X009689Y010964D01*
X009654Y010982D01*
X009654Y010983D01*
X009677Y011022D01*
X009703Y011060D01*
X009732Y011095D01*
X009764Y011129D01*
X009798Y011160D01*
X009834Y011188D01*
X009872Y011213D01*
X009912Y011236D01*
X009953Y011255D01*
X009996Y011272D01*
X010040Y011285D01*
X010085Y011295D01*
X010130Y011301D01*
X010176Y011304D01*
X010176Y011295D01*
X010131Y011292D01*
X010086Y011286D01*
X010042Y011276D01*
X009999Y011263D01*
X009957Y011247D01*
X009916Y011228D01*
X009876Y011206D01*
X009839Y011181D01*
X009803Y011153D01*
X009770Y011122D01*
X009739Y011089D01*
X009711Y011054D01*
X009685Y011017D01*
X009662Y010978D01*
X009670Y010974D01*
X009694Y011015D01*
X009722Y011054D01*
X009753Y011091D01*
X009786Y011125D01*
X009822Y011157D01*
X009861Y011185D01*
X009902Y011210D01*
X009945Y011232D01*
X009989Y011250D01*
X010035Y011265D01*
X010081Y011276D01*
X010129Y011283D01*
X010176Y011286D01*
X010177Y011277D01*
X010129Y011274D01*
X010083Y011267D01*
X010037Y011256D01*
X009992Y011242D01*
X009948Y011224D01*
X009906Y011202D01*
X009866Y011178D01*
X009828Y011150D01*
X009792Y011119D01*
X009759Y011085D01*
X009729Y011049D01*
X009702Y011010D01*
X009678Y010970D01*
X009686Y010966D01*
X009709Y011006D01*
X009736Y011044D01*
X009766Y011079D01*
X009799Y011112D01*
X009834Y011143D01*
X009871Y011170D01*
X009911Y011194D01*
X009952Y011216D01*
X009995Y011233D01*
X010039Y011247D01*
X010084Y011258D01*
X010130Y011265D01*
X010177Y011268D01*
M02*
