%
M48
M72
T01C0.0236
T02C0.0320
T03C0.0400
%
T01
X2181Y7681
X2681Y14181
X4181Y14181
X7181Y9681
T02
X2181Y1481
X2181Y2881
X4181Y3181
X5681Y2681
X5681Y1681
X5681Y3681
X5681Y4681
X5681Y5681
X5681Y6681
X5681Y7681
X5681Y8681
X5681Y9681
X5681Y10681
X5681Y11681
X5681Y12681
X5681Y13681
X5681Y14681
X4181Y12181
X4181Y8181
X4181Y7181
X8681Y6681
X8681Y7681
X8681Y8681
X8681Y9681
X8681Y10681
X8681Y11681
X8681Y12681
X8681Y13681
X8681Y14681
X10181Y14681
X10181Y13681
X10181Y11166
X10181Y10181
X10181Y9197
X10181Y8181
X8681Y5681
X8681Y4681
X8681Y3681
X8681Y2681
X8681Y1681
X10181Y4181
T03
X10181Y3181
X10181Y2181
X10181Y1181
X1181Y5681
X1181Y6681
X1181Y8681
X1181Y9681
X1181Y10681
X1181Y12181
X1181Y13181
X1181Y14181
X1181Y15181
X5181Y16681
X6181Y16681
X7181Y16681
X8181Y16681
X9181Y16681
M30
