%
M48
M72
T01C0.0236
T02C0.0320
T03C0.0400
%
T01
X12661Y2661
X13661Y2661
X12661Y6661
T02
X1161Y661
X2661Y661
X1161Y1661
X4161Y2161
X5661Y1161
X6661Y1161
X7661Y1161
X8661Y1161
X10161Y3661
X11661Y3661
X13161Y3661
X10161Y4661
X8661Y4161
X7661Y4161
X6661Y4161
X5661Y4161
X5661Y5161
X6661Y5161
X7661Y5161
X8661Y5161
X11661Y7661
X13161Y7661
X8661Y8161
X7661Y8161
X6661Y8161
X5661Y8161
X4161Y6161
X2661Y4661
T03
X1161Y4661
X1161Y3661
X1161Y5661
X1161Y6661
X1161Y7661
X15161Y7661
X15161Y6661
X15161Y5661
X15161Y4661
X15161Y3661
M30
