G75*
G70*
%OFA0B0*%
%FSLAX24Y24*%
%IPPOS*%
%LPD*%
%AMOC8*
5,1,8,0,0,1.08239X$1,22.5*
%
%ADD10C,0.0640*%
%ADD11OC8,0.0640*%
%ADD12C,0.0640*%
%ADD13C,0.0720*%
D10*
X005661Y000881D02*
X005661Y001441D01*
X006661Y001441D02*
X006661Y000881D01*
X007661Y000881D02*
X007661Y001441D01*
X008661Y001441D02*
X008661Y000881D01*
X008661Y003881D02*
X008661Y004441D01*
X007661Y004441D02*
X007661Y003881D01*
X006661Y003881D02*
X006661Y004441D01*
X005661Y004441D02*
X005661Y003881D01*
D11*
X001161Y000661D03*
X002661Y000661D03*
X001161Y001661D03*
X004161Y002161D03*
X002661Y004661D03*
X004161Y006161D03*
X010161Y004661D03*
X010161Y003661D03*
X011661Y003661D03*
X013161Y003661D03*
X013161Y007661D03*
X011661Y007661D03*
D12*
X008661Y008161D03*
X007661Y008161D03*
X006661Y008161D03*
X005661Y008161D03*
X005661Y005161D03*
X006661Y005161D03*
X007661Y005161D03*
X008661Y005161D03*
D13*
X014841Y004661D02*
X015481Y004661D01*
X015481Y003661D02*
X014841Y003661D01*
X014841Y005661D02*
X015481Y005661D01*
X015481Y006661D02*
X014841Y006661D01*
X014841Y007661D02*
X015481Y007661D01*
X001481Y007661D02*
X000841Y007661D01*
X000841Y006661D02*
X001481Y006661D01*
X001481Y005661D02*
X000841Y005661D01*
X000841Y004661D02*
X001481Y004661D01*
X001481Y003661D02*
X000841Y003661D01*
M02*
