G75*
G70*
%OFA0B0*%
%FSLAX24Y24*%
%IPPOS*%
%LPD*%
%AMOC8*
5,1,8,0,0,1.08239X$1,22.5*
%
%ADD10C,0.0560*%
%ADD11OC8,0.0560*%
%ADD12C,0.0560*%
%ADD13C,0.0640*%
%ADD14C,0.0100*%
%ADD15C,0.0120*%
%ADD16C,0.0160*%
%ADD17R,0.0436X0.0436*%
D10*
X005661Y000881D02*
X005661Y001441D01*
X006661Y001441D02*
X006661Y000881D01*
X007661Y000881D02*
X007661Y001441D01*
X008661Y001441D02*
X008661Y000881D01*
X008661Y003881D02*
X008661Y004441D01*
X007661Y004441D02*
X007661Y003881D01*
X006661Y003881D02*
X006661Y004441D01*
X005661Y004441D02*
X005661Y003881D01*
D11*
X002661Y004661D03*
X004161Y006161D03*
X010161Y004661D03*
X010161Y003661D03*
X011661Y003661D03*
X013161Y003661D03*
X013161Y007661D03*
X011661Y007661D03*
X004161Y002161D03*
X002661Y000661D03*
X001161Y000661D03*
X001161Y001661D03*
D12*
X005661Y005161D03*
X006661Y005161D03*
X007661Y005161D03*
X008661Y005161D03*
X008661Y008161D03*
X007661Y008161D03*
X006661Y008161D03*
X005661Y008161D03*
D13*
X001481Y007661D02*
X000841Y007661D01*
X000841Y006661D02*
X001481Y006661D01*
X001481Y005661D02*
X000841Y005661D01*
X000841Y004661D02*
X001481Y004661D01*
X001481Y003661D02*
X000841Y003661D01*
X014841Y003661D02*
X015481Y003661D01*
X015481Y004661D02*
X014841Y004661D01*
X014841Y005661D02*
X015481Y005661D01*
X015481Y006661D02*
X014841Y006661D01*
X014841Y007661D02*
X015481Y007661D01*
D14*
X015161Y006661D02*
X013661Y006661D01*
X013161Y006161D01*
X013161Y003661D01*
X013161Y002161D01*
X007661Y002161D01*
X007661Y001161D01*
X007661Y004161D02*
X007661Y005161D01*
X006661Y006161D01*
X004161Y006161D01*
X007661Y008161D02*
X008161Y007661D01*
X011661Y007661D01*
X011661Y005661D01*
X010661Y004661D01*
X010161Y004661D01*
D15*
X000341Y008477D02*
X000341Y000341D01*
X000859Y000341D01*
X000721Y000479D01*
X000721Y000641D01*
X001141Y000641D01*
X001141Y000681D01*
X000721Y000681D01*
X000721Y000843D01*
X000979Y001101D01*
X001141Y001101D01*
X001141Y000681D01*
X001181Y000681D01*
X001181Y001101D01*
X001343Y001101D01*
X001601Y000843D01*
X001601Y000681D01*
X001181Y000681D01*
X001181Y000641D01*
X001601Y000641D01*
X001601Y000479D01*
X001463Y000341D01*
X002359Y000341D01*
X002221Y000479D01*
X002221Y000641D01*
X002641Y000641D01*
X002641Y000681D01*
X002221Y000681D01*
X002221Y000843D01*
X002479Y001101D01*
X002641Y001101D01*
X002641Y000681D01*
X002681Y000681D01*
X002681Y001101D01*
X002843Y001101D01*
X003101Y000843D01*
X003101Y000681D01*
X002681Y000681D01*
X002681Y000641D01*
X003101Y000641D01*
X003101Y000479D01*
X002963Y000341D01*
X015851Y000341D01*
X015851Y003324D01*
X015764Y003237D01*
X015581Y003161D01*
X014742Y003161D01*
X014558Y003237D01*
X014421Y003374D01*
X014421Y003110D01*
X014382Y003014D01*
X014309Y002941D01*
X014059Y002692D01*
X014059Y002369D01*
X013954Y002263D01*
X013391Y002263D01*
X013391Y002066D01*
X013256Y001931D01*
X013066Y001931D01*
X007891Y001931D01*
X007891Y001844D01*
X007922Y001831D01*
X008051Y001702D01*
X008121Y001533D01*
X008121Y000790D01*
X008051Y000621D01*
X007922Y000491D01*
X007753Y000421D01*
X007570Y000421D01*
X007401Y000491D01*
X007271Y000621D01*
X007201Y000790D01*
X007201Y001533D01*
X007271Y001702D01*
X007401Y001831D01*
X007431Y001844D01*
X007431Y002256D01*
X007566Y002391D01*
X007756Y002391D01*
X012263Y002391D01*
X012263Y002401D01*
X006921Y002401D01*
X006921Y001831D01*
X006922Y001831D01*
X007051Y001702D01*
X007121Y001533D01*
X007121Y000790D01*
X007051Y000621D01*
X006922Y000491D01*
X006753Y000421D01*
X006570Y000421D01*
X006401Y000491D01*
X006271Y000621D01*
X006201Y000790D01*
X006201Y001533D01*
X006271Y001702D01*
X006401Y001831D01*
X006401Y001831D01*
X006401Y002401D01*
X004713Y002401D01*
X004610Y002401D01*
X004545Y002428D01*
X004621Y002352D01*
X004621Y001971D01*
X004352Y001701D01*
X003971Y001701D01*
X003771Y001901D01*
X001572Y001901D01*
X001621Y001852D01*
X001621Y001471D01*
X001352Y001201D01*
X000971Y001201D01*
X000701Y001471D01*
X000701Y001852D01*
X000901Y002052D01*
X000901Y002110D01*
X000901Y002213D01*
X000901Y003161D01*
X000742Y003161D01*
X000558Y003237D01*
X000417Y003378D01*
X000341Y003562D01*
X000341Y003761D01*
X000417Y003944D01*
X000558Y004085D01*
X000742Y004161D01*
X001581Y004161D01*
X001764Y004085D01*
X001905Y003944D01*
X001981Y003761D01*
X001981Y003562D01*
X001905Y003378D01*
X001764Y003237D01*
X001581Y003161D01*
X001421Y003161D01*
X001421Y002421D01*
X003771Y002421D01*
X003971Y002621D01*
X004334Y002621D01*
X002754Y004201D01*
X002471Y004201D01*
X002201Y004471D01*
X002201Y004754D01*
X001731Y005224D01*
X001581Y005161D01*
X000742Y005161D01*
X000558Y005237D01*
X000417Y005378D01*
X000341Y005562D01*
X000341Y005761D01*
X000417Y005944D01*
X000558Y006085D01*
X000742Y006161D01*
X001581Y006161D01*
X001764Y006085D01*
X001905Y005944D01*
X001981Y005761D01*
X001981Y005709D01*
X002569Y005121D01*
X002834Y005121D01*
X001731Y006224D01*
X001581Y006161D01*
X000742Y006161D01*
X000558Y006237D01*
X000417Y006378D01*
X000341Y006562D01*
X000341Y006761D01*
X000417Y006944D01*
X000558Y007085D01*
X000742Y007161D01*
X001581Y007161D01*
X001764Y007237D01*
X001905Y007378D01*
X001981Y007562D01*
X001981Y007761D01*
X001905Y007944D01*
X001764Y008085D01*
X001581Y008161D01*
X000742Y008161D01*
X000558Y008085D01*
X000417Y007944D01*
X000341Y007761D01*
X000341Y007562D01*
X000417Y007378D01*
X000558Y007237D01*
X000742Y007161D01*
X001581Y007161D01*
X001764Y007085D01*
X001905Y006944D01*
X001981Y006761D01*
X001981Y006709D01*
X005269Y003421D01*
X006054Y003421D01*
X006266Y003634D01*
X006201Y003790D01*
X006201Y004533D01*
X006271Y004702D01*
X006371Y004801D01*
X006271Y004901D01*
X006201Y005070D01*
X006201Y005253D01*
X006271Y005422D01*
X006401Y005551D01*
X006570Y005621D01*
X006753Y005621D01*
X006922Y005551D01*
X007051Y005422D01*
X007121Y005253D01*
X007121Y005070D01*
X007051Y004901D01*
X006952Y004801D01*
X007051Y004702D01*
X007121Y004533D01*
X007121Y003790D01*
X007051Y003621D01*
X006922Y003491D01*
X006815Y003447D01*
X006809Y003441D01*
X006309Y002941D01*
X006261Y002921D01*
X006610Y002921D01*
X012263Y002921D01*
X012263Y002954D01*
X012369Y003059D01*
X012931Y003059D01*
X012931Y003241D01*
X012701Y003471D01*
X012701Y003852D01*
X012931Y004082D01*
X012931Y006066D01*
X012931Y006256D01*
X012938Y006263D01*
X012369Y006263D01*
X012263Y006369D01*
X012263Y006954D01*
X012369Y007059D01*
X012954Y007059D01*
X013059Y006954D01*
X013059Y006927D01*
X013441Y007309D01*
X013514Y007382D01*
X013610Y007421D01*
X014054Y007421D01*
X014341Y007709D01*
X014341Y007761D01*
X014417Y007944D01*
X014558Y008085D01*
X014742Y008161D01*
X015581Y008161D01*
X015764Y008085D01*
X015851Y007998D01*
X015851Y008477D01*
X008967Y008477D01*
X008997Y008448D01*
X009038Y008392D01*
X009069Y008330D01*
X009090Y008264D01*
X009101Y008196D01*
X009101Y008181D01*
X008681Y008181D01*
X008681Y008141D01*
X009101Y008141D01*
X009101Y008127D01*
X009090Y008058D01*
X009069Y007992D01*
X009038Y007931D01*
X009009Y007891D01*
X011241Y007891D01*
X011471Y008121D01*
X011852Y008121D01*
X012121Y007852D01*
X012121Y007471D01*
X011891Y007241D01*
X011891Y005756D01*
X011891Y005566D01*
X010891Y004566D01*
X010756Y004431D01*
X010582Y004431D01*
X010352Y004201D01*
X009971Y004201D01*
X009701Y004471D01*
X009701Y004852D01*
X009971Y005121D01*
X010352Y005121D01*
X010574Y004899D01*
X011431Y005756D01*
X011431Y007241D01*
X011241Y007431D01*
X008066Y007431D01*
X007931Y007566D01*
X007783Y007714D01*
X007753Y007701D01*
X007570Y007701D01*
X007401Y007771D01*
X007271Y007901D01*
X007201Y008070D01*
X007201Y008253D01*
X007271Y008422D01*
X007327Y008477D01*
X006996Y008477D01*
X007051Y008422D01*
X007121Y008253D01*
X007121Y008070D01*
X007051Y007901D01*
X006922Y007771D01*
X006753Y007701D01*
X006570Y007701D01*
X006401Y007771D01*
X006271Y007901D01*
X006201Y008070D01*
X006201Y008253D01*
X006271Y008422D01*
X006327Y008477D01*
X005967Y008477D01*
X005997Y008448D01*
X006038Y008392D01*
X006069Y008330D01*
X006090Y008264D01*
X006101Y008196D01*
X006101Y008181D01*
X005681Y008181D01*
X005681Y008141D01*
X005681Y007721D01*
X005696Y007721D01*
X005764Y007732D01*
X005830Y007754D01*
X005892Y007785D01*
X005948Y007826D01*
X005997Y007875D01*
X006038Y007931D01*
X006069Y007992D01*
X006090Y008058D01*
X006101Y008127D01*
X006101Y008141D01*
X005681Y008141D01*
X005641Y008141D01*
X005641Y007721D01*
X005627Y007721D01*
X005558Y007732D01*
X005492Y007754D01*
X005431Y007785D01*
X005375Y007826D01*
X005326Y007875D01*
X005285Y007931D01*
X005254Y007992D01*
X005232Y008058D01*
X005221Y008127D01*
X005221Y008141D01*
X005641Y008141D01*
X005641Y008181D01*
X005221Y008181D01*
X005221Y008196D01*
X005232Y008264D01*
X005254Y008330D01*
X005285Y008392D01*
X005326Y008448D01*
X005355Y008477D01*
X000341Y008477D01*
X000341Y008459D02*
X005337Y008459D01*
X005259Y008341D02*
X000341Y008341D01*
X000341Y008222D02*
X005225Y008222D01*
X005225Y008104D02*
X001720Y008104D01*
X001864Y007985D02*
X005257Y007985D01*
X005334Y007867D02*
X001937Y007867D01*
X001981Y007748D02*
X005509Y007748D01*
X005641Y007748D02*
X005681Y007748D01*
X005813Y007748D02*
X006457Y007748D01*
X006305Y007867D02*
X005989Y007867D01*
X006065Y007985D02*
X006236Y007985D01*
X006201Y008104D02*
X006098Y008104D01*
X006097Y008222D02*
X006201Y008222D01*
X006238Y008341D02*
X006064Y008341D01*
X005985Y008459D02*
X006309Y008459D01*
X007014Y008459D02*
X007309Y008459D01*
X007238Y008341D02*
X007085Y008341D01*
X007121Y008222D02*
X007201Y008222D01*
X007201Y008104D02*
X007121Y008104D01*
X007086Y007985D02*
X007236Y007985D01*
X007305Y007867D02*
X007017Y007867D01*
X006866Y007748D02*
X007457Y007748D01*
X007868Y007629D02*
X001981Y007629D01*
X001960Y007511D02*
X007986Y007511D01*
X008256Y007891D02*
X008109Y008039D01*
X008121Y008070D01*
X008121Y008253D01*
X008051Y008422D01*
X007996Y008477D01*
X008355Y008477D01*
X008326Y008448D01*
X008285Y008392D01*
X008254Y008330D01*
X008232Y008264D01*
X008221Y008196D01*
X008221Y008181D01*
X008641Y008181D01*
X008641Y008141D01*
X008221Y008141D01*
X008221Y008127D01*
X008232Y008058D01*
X008254Y007992D01*
X008285Y007931D01*
X008314Y007891D01*
X008256Y007891D01*
X008257Y007985D02*
X008163Y007985D01*
X008121Y008104D02*
X008225Y008104D01*
X008225Y008222D02*
X008121Y008222D01*
X008085Y008341D02*
X008259Y008341D01*
X008337Y008459D02*
X008014Y008459D01*
X008985Y008459D02*
X015851Y008459D01*
X015851Y008341D02*
X009064Y008341D01*
X009097Y008222D02*
X015851Y008222D01*
X015851Y008104D02*
X015720Y008104D01*
X014603Y008104D02*
X011869Y008104D01*
X011988Y007985D02*
X012863Y007985D01*
X012979Y008101D02*
X012721Y007843D01*
X012721Y007681D01*
X013141Y007681D01*
X013141Y007641D01*
X012721Y007641D01*
X012721Y007479D01*
X012979Y007221D01*
X013141Y007221D01*
X013141Y007641D01*
X013181Y007641D01*
X013181Y007221D01*
X013343Y007221D01*
X013601Y007479D01*
X013601Y007641D01*
X013181Y007641D01*
X013181Y007681D01*
X013141Y007681D01*
X013141Y008101D01*
X012979Y008101D01*
X013141Y007985D02*
X013181Y007985D01*
X013181Y008101D02*
X013181Y007681D01*
X013601Y007681D01*
X013601Y007843D01*
X013343Y008101D01*
X013181Y008101D01*
X013181Y007867D02*
X013141Y007867D01*
X013141Y007748D02*
X013181Y007748D01*
X013181Y007629D02*
X013141Y007629D01*
X013141Y007511D02*
X013181Y007511D01*
X013181Y007392D02*
X013141Y007392D01*
X013141Y007274D02*
X013181Y007274D01*
X013288Y007155D02*
X011891Y007155D01*
X011924Y007274D02*
X012926Y007274D01*
X012808Y007392D02*
X012043Y007392D01*
X012121Y007511D02*
X012721Y007511D01*
X012721Y007629D02*
X012121Y007629D01*
X012121Y007748D02*
X012721Y007748D01*
X012744Y007867D02*
X012106Y007867D01*
X011453Y008104D02*
X009098Y008104D01*
X009065Y007985D02*
X011335Y007985D01*
X011280Y007392D02*
X001911Y007392D01*
X001801Y007274D02*
X011398Y007274D01*
X011431Y007155D02*
X001595Y007155D01*
X001813Y007037D02*
X011431Y007037D01*
X011431Y006918D02*
X001916Y006918D01*
X001965Y006800D02*
X011431Y006800D01*
X011431Y006681D02*
X002009Y006681D01*
X002128Y006563D02*
X003912Y006563D01*
X003971Y006621D02*
X003701Y006352D01*
X003701Y005971D01*
X003971Y005701D01*
X004352Y005701D01*
X004582Y005931D01*
X006566Y005931D01*
X007214Y005283D01*
X007201Y005253D01*
X007201Y005070D01*
X007271Y004901D01*
X007371Y004801D01*
X007271Y004702D01*
X007201Y004533D01*
X007201Y003790D01*
X007271Y003621D01*
X007401Y003491D01*
X007570Y003421D01*
X007753Y003421D01*
X007922Y003491D01*
X008051Y003621D01*
X008121Y003790D01*
X008121Y004533D01*
X008051Y004702D01*
X007952Y004801D01*
X008051Y004901D01*
X008121Y005070D01*
X008121Y005253D01*
X008051Y005422D01*
X007922Y005551D01*
X007753Y005621D01*
X007570Y005621D01*
X007539Y005609D01*
X006756Y006391D01*
X006566Y006391D01*
X004582Y006391D01*
X004352Y006621D01*
X003971Y006621D01*
X003794Y006444D02*
X002246Y006444D01*
X002365Y006326D02*
X003701Y006326D01*
X003701Y006207D02*
X002483Y006207D01*
X002602Y006088D02*
X003701Y006088D01*
X003702Y005970D02*
X002720Y005970D01*
X002839Y005851D02*
X003821Y005851D01*
X003939Y005733D02*
X002957Y005733D01*
X003076Y005614D02*
X005553Y005614D01*
X005570Y005621D02*
X005401Y005551D01*
X005271Y005422D01*
X005201Y005253D01*
X005201Y005070D01*
X005271Y004901D01*
X005387Y004785D01*
X005375Y004777D01*
X005326Y004728D01*
X005285Y004672D01*
X005254Y004610D01*
X005232Y004544D01*
X005221Y004476D01*
X005221Y004181D01*
X005641Y004181D01*
X005641Y004141D01*
X005221Y004141D01*
X005221Y003847D01*
X005232Y003778D01*
X005254Y003712D01*
X005285Y003651D01*
X005326Y003595D01*
X005375Y003546D01*
X005431Y003505D01*
X005492Y003474D01*
X005558Y003452D01*
X005627Y003441D01*
X005641Y003441D01*
X005641Y004141D01*
X005681Y004141D01*
X005681Y003441D01*
X005696Y003441D01*
X005764Y003452D01*
X005830Y003474D01*
X005892Y003505D01*
X005948Y003546D01*
X005997Y003595D01*
X006038Y003651D01*
X006069Y003712D01*
X006090Y003778D01*
X006101Y003847D01*
X006101Y004141D01*
X005681Y004141D01*
X005681Y004181D01*
X006101Y004181D01*
X006101Y004476D01*
X006090Y004544D01*
X006069Y004610D01*
X006038Y004672D01*
X005997Y004728D01*
X005948Y004777D01*
X005936Y004785D01*
X006051Y004901D01*
X006121Y005070D01*
X006121Y005253D01*
X006051Y005422D01*
X005922Y005551D01*
X005753Y005621D01*
X005570Y005621D01*
X005770Y005614D02*
X006553Y005614D01*
X006770Y005614D02*
X006883Y005614D01*
X006977Y005496D02*
X007002Y005496D01*
X007070Y005377D02*
X007120Y005377D01*
X007119Y005259D02*
X007204Y005259D01*
X007201Y005140D02*
X007121Y005140D01*
X007101Y005022D02*
X007221Y005022D01*
X007270Y004903D02*
X007052Y004903D01*
X006969Y004784D02*
X007354Y004784D01*
X007256Y004666D02*
X007066Y004666D01*
X007115Y004547D02*
X007207Y004547D01*
X007201Y004429D02*
X007121Y004429D01*
X007121Y004310D02*
X007201Y004310D01*
X007201Y004192D02*
X007121Y004192D01*
X007121Y004073D02*
X007201Y004073D01*
X007201Y003955D02*
X007121Y003955D01*
X007121Y003836D02*
X007201Y003836D01*
X007231Y003718D02*
X007091Y003718D01*
X007030Y003599D02*
X007293Y003599D01*
X007427Y003480D02*
X006896Y003480D01*
X006730Y003362D02*
X009838Y003362D01*
X009721Y003479D02*
X009979Y003221D01*
X010141Y003221D01*
X010141Y003641D01*
X009721Y003641D01*
X009721Y003479D01*
X009721Y003480D02*
X008896Y003480D01*
X008922Y003491D02*
X009051Y003621D01*
X009121Y003790D01*
X009121Y004533D01*
X009051Y004702D01*
X008952Y004801D01*
X009051Y004901D01*
X009121Y005070D01*
X009121Y005253D01*
X009051Y005422D01*
X008922Y005551D01*
X008753Y005621D01*
X008570Y005621D01*
X008401Y005551D01*
X008271Y005422D01*
X008201Y005253D01*
X008201Y005070D01*
X008271Y004901D01*
X008371Y004801D01*
X008271Y004702D01*
X008201Y004533D01*
X008201Y003790D01*
X008271Y003621D01*
X008401Y003491D01*
X008570Y003421D01*
X008753Y003421D01*
X008922Y003491D01*
X009030Y003599D02*
X009721Y003599D01*
X009721Y003681D02*
X010141Y003681D01*
X010141Y003641D01*
X010181Y003641D01*
X010181Y003221D01*
X010343Y003221D01*
X010601Y003479D01*
X010601Y003641D01*
X010181Y003641D01*
X010181Y003681D01*
X010141Y003681D01*
X010141Y004101D01*
X009979Y004101D01*
X009721Y003843D01*
X009721Y003681D01*
X009721Y003718D02*
X009091Y003718D01*
X009121Y003836D02*
X009721Y003836D01*
X009832Y003955D02*
X009121Y003955D01*
X009121Y004073D02*
X009951Y004073D01*
X010141Y004073D02*
X010181Y004073D01*
X010181Y004101D02*
X010181Y003681D01*
X010601Y003681D01*
X010601Y003843D01*
X010343Y004101D01*
X010181Y004101D01*
X010371Y004073D02*
X011423Y004073D01*
X011471Y004121D02*
X011201Y003852D01*
X011201Y003471D01*
X011471Y003201D01*
X011852Y003201D01*
X012121Y003471D01*
X012121Y003852D01*
X011852Y004121D01*
X011471Y004121D01*
X011304Y003955D02*
X010490Y003955D01*
X010601Y003836D02*
X011201Y003836D01*
X011201Y003718D02*
X010601Y003718D01*
X010601Y003599D02*
X011201Y003599D01*
X011201Y003480D02*
X010601Y003480D01*
X010484Y003362D02*
X011310Y003362D01*
X011429Y003243D02*
X010366Y003243D01*
X010181Y003243D02*
X010141Y003243D01*
X010141Y003362D02*
X010181Y003362D01*
X010181Y003480D02*
X010141Y003480D01*
X010141Y003599D02*
X010181Y003599D01*
X010181Y003718D02*
X010141Y003718D01*
X010141Y003836D02*
X010181Y003836D01*
X010181Y003955D02*
X010141Y003955D01*
X009862Y004310D02*
X009121Y004310D01*
X009121Y004192D02*
X012931Y004192D01*
X012931Y004310D02*
X010461Y004310D01*
X010579Y004429D02*
X012931Y004429D01*
X012931Y004547D02*
X010873Y004547D01*
X010991Y004666D02*
X012931Y004666D01*
X012931Y004784D02*
X011110Y004784D01*
X011228Y004903D02*
X012931Y004903D01*
X012931Y005022D02*
X011347Y005022D01*
X011465Y005140D02*
X012931Y005140D01*
X012931Y005259D02*
X011584Y005259D01*
X011702Y005377D02*
X012931Y005377D01*
X012931Y005496D02*
X011821Y005496D01*
X011891Y005614D02*
X012931Y005614D01*
X012931Y005733D02*
X011891Y005733D01*
X011891Y005851D02*
X012931Y005851D01*
X012931Y005970D02*
X011891Y005970D01*
X011891Y006088D02*
X012931Y006088D01*
X012931Y006207D02*
X011891Y006207D01*
X011891Y006326D02*
X012306Y006326D01*
X012263Y006444D02*
X011891Y006444D01*
X011891Y006563D02*
X012263Y006563D01*
X012263Y006681D02*
X011891Y006681D01*
X011891Y006800D02*
X012263Y006800D01*
X012263Y006918D02*
X011891Y006918D01*
X011891Y007037D02*
X012346Y007037D01*
X012976Y007037D02*
X013169Y007037D01*
X013396Y007274D02*
X013406Y007274D01*
X013515Y007392D02*
X013540Y007392D01*
X013601Y007511D02*
X014143Y007511D01*
X014262Y007629D02*
X013601Y007629D01*
X013601Y007748D02*
X014341Y007748D01*
X014385Y007867D02*
X013578Y007867D01*
X013460Y007985D02*
X014458Y007985D01*
X011431Y006563D02*
X004410Y006563D01*
X004529Y006444D02*
X011431Y006444D01*
X011431Y006326D02*
X006822Y006326D01*
X006941Y006207D02*
X011431Y006207D01*
X011431Y006088D02*
X007059Y006088D01*
X007178Y005970D02*
X011431Y005970D01*
X011431Y005851D02*
X007296Y005851D01*
X007415Y005733D02*
X011408Y005733D01*
X011289Y005614D02*
X008770Y005614D01*
X008553Y005614D02*
X007770Y005614D01*
X007553Y005614D02*
X007533Y005614D01*
X007977Y005496D02*
X008345Y005496D01*
X008253Y005377D02*
X008070Y005377D01*
X008119Y005259D02*
X008204Y005259D01*
X008201Y005140D02*
X008121Y005140D01*
X008101Y005022D02*
X008221Y005022D01*
X008270Y004903D02*
X008052Y004903D01*
X007969Y004784D02*
X008354Y004784D01*
X008256Y004666D02*
X008066Y004666D01*
X008115Y004547D02*
X008207Y004547D01*
X008201Y004429D02*
X008121Y004429D01*
X008121Y004310D02*
X008201Y004310D01*
X008201Y004192D02*
X008121Y004192D01*
X008121Y004073D02*
X008201Y004073D01*
X008201Y003955D02*
X008121Y003955D01*
X008121Y003836D02*
X008201Y003836D01*
X008231Y003718D02*
X008091Y003718D01*
X008030Y003599D02*
X008293Y003599D01*
X008427Y003480D02*
X007896Y003480D01*
X006611Y003243D02*
X009957Y003243D01*
X011894Y003243D02*
X012929Y003243D01*
X012931Y003125D02*
X006493Y003125D01*
X006374Y003006D02*
X012316Y003006D01*
X012012Y003362D02*
X012810Y003362D01*
X012701Y003480D02*
X012121Y003480D01*
X012121Y003599D02*
X012701Y003599D01*
X012701Y003718D02*
X012121Y003718D01*
X012121Y003836D02*
X012701Y003836D01*
X012804Y003955D02*
X012018Y003955D01*
X011900Y004073D02*
X012923Y004073D01*
X014421Y004073D02*
X014546Y004073D01*
X014558Y004085D02*
X014421Y003948D01*
X014421Y004428D01*
X014431Y004410D01*
X014475Y004349D01*
X014529Y004295D01*
X014590Y004251D01*
X014657Y004216D01*
X014729Y004193D01*
X014803Y004181D01*
X015121Y004181D01*
X015121Y004621D01*
X015201Y004621D01*
X015201Y004181D01*
X015519Y004181D01*
X015594Y004193D01*
X015666Y004216D01*
X015733Y004251D01*
X015794Y004295D01*
X015847Y004349D01*
X015851Y004354D01*
X015851Y003998D01*
X015764Y004085D01*
X015581Y004161D01*
X014742Y004161D01*
X014558Y004085D01*
X014421Y004192D02*
X014737Y004192D01*
X014513Y004310D02*
X014421Y004310D01*
X014421Y003955D02*
X014428Y003955D01*
X015121Y004192D02*
X015201Y004192D01*
X015201Y004310D02*
X015121Y004310D01*
X015121Y004429D02*
X015201Y004429D01*
X015201Y004547D02*
X015121Y004547D01*
X015121Y004701D02*
X015121Y005141D01*
X014803Y005141D01*
X014729Y005129D01*
X014657Y005106D01*
X014590Y005072D01*
X014529Y005027D01*
X014475Y004974D01*
X014431Y004913D01*
X014421Y004894D01*
X014421Y005054D01*
X014591Y005224D01*
X014742Y005161D01*
X015581Y005161D01*
X015764Y005237D01*
X015851Y005324D01*
X015851Y004968D01*
X015847Y004974D01*
X015794Y005027D01*
X015733Y005072D01*
X015666Y005106D01*
X015594Y005129D01*
X015519Y005141D01*
X015201Y005141D01*
X015201Y004701D01*
X015121Y004701D01*
X015121Y004784D02*
X015201Y004784D01*
X015201Y004903D02*
X015121Y004903D01*
X015121Y005022D02*
X015201Y005022D01*
X015201Y005140D02*
X015121Y005140D01*
X014796Y005140D02*
X014508Y005140D01*
X014523Y005022D02*
X014421Y005022D01*
X014421Y004903D02*
X014426Y004903D01*
X015526Y005140D02*
X015851Y005140D01*
X015851Y005259D02*
X015786Y005259D01*
X015800Y005022D02*
X015851Y005022D01*
X015851Y004310D02*
X015809Y004310D01*
X015851Y004192D02*
X015585Y004192D01*
X015776Y004073D02*
X015851Y004073D01*
X014433Y003362D02*
X014421Y003362D01*
X014421Y003243D02*
X014552Y003243D01*
X014421Y003125D02*
X015851Y003125D01*
X015851Y003243D02*
X015770Y003243D01*
X015851Y003006D02*
X014374Y003006D01*
X014255Y002888D02*
X015851Y002888D01*
X015851Y002769D02*
X014137Y002769D01*
X014059Y002651D02*
X015851Y002651D01*
X015851Y002532D02*
X014059Y002532D01*
X014059Y002414D02*
X015851Y002414D01*
X015851Y002295D02*
X013986Y002295D01*
X013391Y002176D02*
X015851Y002176D01*
X015851Y002058D02*
X013383Y002058D01*
X013265Y001939D02*
X015851Y001939D01*
X015851Y001821D02*
X008932Y001821D01*
X008922Y001831D02*
X008753Y001901D01*
X008570Y001901D01*
X008401Y001831D01*
X008271Y001702D01*
X008201Y001533D01*
X008201Y000790D01*
X008271Y000621D01*
X008401Y000491D01*
X008570Y000421D01*
X008753Y000421D01*
X008922Y000491D01*
X009051Y000621D01*
X009121Y000790D01*
X009121Y001533D01*
X009051Y001702D01*
X008922Y001831D01*
X009051Y001702D02*
X015851Y001702D01*
X015851Y001584D02*
X009100Y001584D01*
X009121Y001465D02*
X015851Y001465D01*
X015851Y001347D02*
X009121Y001347D01*
X009121Y001228D02*
X015851Y001228D01*
X015851Y001110D02*
X009121Y001110D01*
X009121Y000991D02*
X015851Y000991D01*
X015851Y000873D02*
X009121Y000873D01*
X009106Y000754D02*
X015851Y000754D01*
X015851Y000635D02*
X009057Y000635D01*
X008947Y000517D02*
X015851Y000517D01*
X015851Y000398D02*
X003021Y000398D01*
X003101Y000517D02*
X005375Y000517D01*
X005401Y000491D02*
X005570Y000421D01*
X005753Y000421D01*
X005922Y000491D01*
X006051Y000621D01*
X006121Y000790D01*
X006121Y001533D01*
X006051Y001702D01*
X005922Y001831D01*
X005753Y001901D01*
X005570Y001901D01*
X005401Y001831D01*
X005271Y001702D01*
X005201Y001533D01*
X005201Y000790D01*
X005271Y000621D01*
X005401Y000491D01*
X005265Y000635D02*
X003101Y000635D01*
X003101Y000754D02*
X005216Y000754D01*
X005201Y000873D02*
X003072Y000873D01*
X002954Y000991D02*
X005201Y000991D01*
X005201Y001110D02*
X000341Y001110D01*
X000341Y001228D02*
X000944Y001228D01*
X000825Y001347D02*
X000341Y001347D01*
X000341Y001465D02*
X000707Y001465D01*
X000701Y001584D02*
X000341Y001584D01*
X000341Y001702D02*
X000701Y001702D01*
X000701Y001821D02*
X000341Y001821D01*
X000341Y001939D02*
X000789Y001939D01*
X000901Y002058D02*
X000341Y002058D01*
X000341Y002176D02*
X000901Y002176D01*
X000901Y002295D02*
X000341Y002295D01*
X000341Y002414D02*
X000901Y002414D01*
X000901Y002532D02*
X000341Y002532D01*
X000341Y002651D02*
X000901Y002651D01*
X000901Y002769D02*
X000341Y002769D01*
X000341Y002888D02*
X000901Y002888D01*
X000901Y003006D02*
X000341Y003006D01*
X000341Y003125D02*
X000901Y003125D01*
X000552Y003243D02*
X000341Y003243D01*
X000341Y003362D02*
X000433Y003362D01*
X000375Y003480D02*
X000341Y003480D01*
X000341Y003599D02*
X000341Y003599D01*
X000341Y003718D02*
X000341Y003718D01*
X000341Y003836D02*
X000373Y003836D01*
X000341Y003955D02*
X000428Y003955D01*
X000341Y004073D02*
X000546Y004073D01*
X000657Y004216D02*
X000729Y004193D01*
X000803Y004181D01*
X001121Y004181D01*
X001121Y004621D01*
X001201Y004621D01*
X001201Y004181D01*
X001519Y004181D01*
X001594Y004193D01*
X001666Y004216D01*
X001733Y004251D01*
X001794Y004295D01*
X001847Y004349D01*
X001892Y004410D01*
X001926Y004477D01*
X001949Y004549D01*
X001961Y004621D01*
X001201Y004621D01*
X001201Y004701D01*
X001121Y004701D01*
X001121Y004621D01*
X000362Y004621D01*
X000373Y004549D01*
X000396Y004477D01*
X000431Y004410D01*
X000475Y004349D01*
X000529Y004295D01*
X000590Y004251D01*
X000657Y004216D01*
X000737Y004192D02*
X000341Y004192D01*
X000341Y004310D02*
X000513Y004310D01*
X000421Y004429D02*
X000341Y004429D01*
X000341Y004547D02*
X000374Y004547D01*
X000341Y004666D02*
X001121Y004666D01*
X001121Y004701D02*
X000362Y004701D01*
X000373Y004774D01*
X000396Y004846D01*
X000431Y004913D01*
X000475Y004974D01*
X000529Y005027D01*
X000590Y005072D01*
X000657Y005106D01*
X000729Y005129D01*
X000803Y005141D01*
X001121Y005141D01*
X001121Y004701D01*
X001201Y004701D02*
X001201Y005141D01*
X001519Y005141D01*
X001594Y005129D01*
X001666Y005106D01*
X001733Y005072D01*
X001794Y005027D01*
X001847Y004974D01*
X001892Y004913D01*
X001926Y004846D01*
X001949Y004774D01*
X001961Y004701D01*
X001201Y004701D01*
X001201Y004666D02*
X002201Y004666D01*
X002201Y004547D02*
X001949Y004547D01*
X001901Y004429D02*
X002243Y004429D01*
X002362Y004310D02*
X001809Y004310D01*
X001776Y004073D02*
X002882Y004073D01*
X002763Y004192D02*
X001585Y004192D01*
X001201Y004192D02*
X001121Y004192D01*
X001121Y004310D02*
X001201Y004310D01*
X001201Y004429D02*
X001121Y004429D01*
X001121Y004547D02*
X001201Y004547D01*
X001201Y004784D02*
X001121Y004784D01*
X001121Y004903D02*
X001201Y004903D01*
X001201Y005022D02*
X001121Y005022D01*
X001121Y005140D02*
X001201Y005140D01*
X001526Y005140D02*
X001815Y005140D01*
X001800Y005022D02*
X001933Y005022D01*
X001897Y004903D02*
X002052Y004903D01*
X001946Y004784D02*
X002170Y004784D01*
X002550Y005140D02*
X002815Y005140D01*
X002696Y005259D02*
X002432Y005259D01*
X002313Y005377D02*
X002578Y005377D01*
X002459Y005496D02*
X002194Y005496D01*
X002076Y005614D02*
X002341Y005614D01*
X002222Y005733D02*
X001981Y005733D01*
X001944Y005851D02*
X002104Y005851D01*
X001985Y005970D02*
X001880Y005970D01*
X001866Y006088D02*
X001756Y006088D01*
X001748Y006207D02*
X001691Y006207D01*
X000631Y006207D02*
X000341Y006207D01*
X000341Y006326D02*
X000470Y006326D01*
X000390Y006444D02*
X000341Y006444D01*
X000341Y006563D02*
X000341Y006563D01*
X000341Y006681D02*
X000341Y006681D01*
X000341Y006800D02*
X000357Y006800D01*
X000341Y006918D02*
X000407Y006918D01*
X000341Y007037D02*
X000510Y007037D01*
X000341Y007155D02*
X000728Y007155D01*
X000522Y007274D02*
X000341Y007274D01*
X000341Y007392D02*
X000411Y007392D01*
X000362Y007511D02*
X000341Y007511D01*
X000341Y007629D02*
X000341Y007629D01*
X000341Y007748D02*
X000341Y007748D01*
X000341Y007867D02*
X000385Y007867D01*
X000341Y007985D02*
X000458Y007985D01*
X000341Y008104D02*
X000603Y008104D01*
X000566Y006088D02*
X000341Y006088D01*
X000341Y005970D02*
X000443Y005970D01*
X000379Y005851D02*
X000341Y005851D01*
X000341Y005733D02*
X000341Y005733D01*
X000341Y005614D02*
X000341Y005614D01*
X000341Y005496D02*
X000369Y005496D01*
X000341Y005377D02*
X000418Y005377D01*
X000341Y005259D02*
X000537Y005259D01*
X000341Y005140D02*
X000796Y005140D01*
X000523Y005022D02*
X000341Y005022D01*
X000341Y004903D02*
X000426Y004903D01*
X000377Y004784D02*
X000341Y004784D01*
X001895Y003955D02*
X003000Y003955D01*
X003119Y003836D02*
X001950Y003836D01*
X001981Y003718D02*
X003237Y003718D01*
X003356Y003599D02*
X001981Y003599D01*
X001948Y003480D02*
X003474Y003480D01*
X003593Y003362D02*
X001889Y003362D01*
X001770Y003243D02*
X003711Y003243D01*
X003830Y003125D02*
X001421Y003125D01*
X001421Y003006D02*
X003949Y003006D01*
X004067Y002888D02*
X001421Y002888D01*
X001421Y002769D02*
X004186Y002769D01*
X004304Y002651D02*
X001421Y002651D01*
X001421Y002532D02*
X003882Y002532D01*
X004559Y002414D02*
X004580Y002414D01*
X004621Y002295D02*
X006401Y002295D01*
X006401Y002176D02*
X004621Y002176D01*
X004621Y002058D02*
X006401Y002058D01*
X006401Y001939D02*
X004590Y001939D01*
X004471Y001821D02*
X005390Y001821D01*
X005272Y001702D02*
X004353Y001702D01*
X003970Y001702D02*
X001621Y001702D01*
X001621Y001821D02*
X003851Y001821D01*
X005222Y001584D02*
X001621Y001584D01*
X001616Y001465D02*
X005201Y001465D01*
X005201Y001347D02*
X001497Y001347D01*
X001379Y001228D02*
X005201Y001228D01*
X006121Y001228D02*
X006201Y001228D01*
X006201Y001110D02*
X006121Y001110D01*
X006121Y000991D02*
X006201Y000991D01*
X006201Y000873D02*
X006121Y000873D01*
X006106Y000754D02*
X006216Y000754D01*
X006265Y000635D02*
X006057Y000635D01*
X005947Y000517D02*
X006375Y000517D01*
X006947Y000517D02*
X007375Y000517D01*
X007265Y000635D02*
X007057Y000635D01*
X007106Y000754D02*
X007216Y000754D01*
X007201Y000873D02*
X007121Y000873D01*
X007121Y000991D02*
X007201Y000991D01*
X007201Y001110D02*
X007121Y001110D01*
X007121Y001228D02*
X007201Y001228D01*
X007201Y001347D02*
X007121Y001347D01*
X007121Y001465D02*
X007201Y001465D01*
X007222Y001584D02*
X007100Y001584D01*
X007051Y001702D02*
X007272Y001702D01*
X007390Y001821D02*
X006932Y001821D01*
X006921Y001939D02*
X007431Y001939D01*
X007431Y002058D02*
X006921Y002058D01*
X006921Y002176D02*
X007431Y002176D01*
X007470Y002295D02*
X006921Y002295D01*
X006390Y001821D02*
X005932Y001821D01*
X006051Y001702D02*
X006272Y001702D01*
X006222Y001584D02*
X006100Y001584D01*
X006121Y001465D02*
X006201Y001465D01*
X006201Y001347D02*
X006121Y001347D01*
X007932Y001821D02*
X008390Y001821D01*
X008272Y001702D02*
X008051Y001702D01*
X008100Y001584D02*
X008222Y001584D01*
X008201Y001465D02*
X008121Y001465D01*
X008121Y001347D02*
X008201Y001347D01*
X008201Y001228D02*
X008121Y001228D01*
X008121Y001110D02*
X008201Y001110D01*
X008201Y000991D02*
X008121Y000991D01*
X008121Y000873D02*
X008201Y000873D01*
X008216Y000754D02*
X008106Y000754D01*
X008057Y000635D02*
X008265Y000635D01*
X008375Y000517D02*
X007947Y000517D01*
X002681Y000754D02*
X002641Y000754D01*
X002641Y000873D02*
X002681Y000873D01*
X002681Y000991D02*
X002641Y000991D01*
X002369Y000991D02*
X001454Y000991D01*
X001181Y000991D02*
X001141Y000991D01*
X000869Y000991D02*
X000341Y000991D01*
X000341Y000873D02*
X000750Y000873D01*
X000721Y000754D02*
X000341Y000754D01*
X000341Y000635D02*
X000721Y000635D01*
X000721Y000517D02*
X000341Y000517D01*
X000341Y000398D02*
X000802Y000398D01*
X001141Y000754D02*
X001181Y000754D01*
X001181Y000873D02*
X001141Y000873D01*
X001572Y000873D02*
X002250Y000873D01*
X002221Y000754D02*
X001601Y000754D01*
X001601Y000635D02*
X002221Y000635D01*
X002221Y000517D02*
X001601Y000517D01*
X001521Y000398D02*
X002302Y000398D01*
X005210Y003480D02*
X005479Y003480D01*
X005641Y003480D02*
X005681Y003480D01*
X005681Y003599D02*
X005641Y003599D01*
X005844Y003480D02*
X006113Y003480D01*
X006000Y003599D02*
X006231Y003599D01*
X006231Y003718D02*
X006071Y003718D01*
X006100Y003836D02*
X006201Y003836D01*
X006201Y003955D02*
X006101Y003955D01*
X006101Y004073D02*
X006201Y004073D01*
X006201Y004192D02*
X006101Y004192D01*
X006101Y004310D02*
X006201Y004310D01*
X006201Y004429D02*
X006101Y004429D01*
X006089Y004547D02*
X006207Y004547D01*
X006256Y004666D02*
X006041Y004666D01*
X005937Y004784D02*
X006354Y004784D01*
X006270Y004903D02*
X006052Y004903D01*
X006101Y005022D02*
X006221Y005022D01*
X006201Y005140D02*
X006121Y005140D01*
X006119Y005259D02*
X006204Y005259D01*
X006253Y005377D02*
X006070Y005377D01*
X005977Y005496D02*
X006345Y005496D01*
X006764Y005733D02*
X004383Y005733D01*
X004502Y005851D02*
X006646Y005851D01*
X005345Y005496D02*
X003194Y005496D01*
X003313Y005377D02*
X005253Y005377D01*
X005204Y005259D02*
X003432Y005259D01*
X003550Y005140D02*
X005201Y005140D01*
X005221Y005022D02*
X003669Y005022D01*
X003787Y004903D02*
X005270Y004903D01*
X005385Y004784D02*
X003906Y004784D01*
X004024Y004666D02*
X005282Y004666D01*
X005233Y004547D02*
X004143Y004547D01*
X004261Y004429D02*
X005221Y004429D01*
X005221Y004310D02*
X004380Y004310D01*
X004498Y004192D02*
X005221Y004192D01*
X005221Y004073D02*
X004617Y004073D01*
X004736Y003955D02*
X005221Y003955D01*
X005223Y003836D02*
X004854Y003836D01*
X004973Y003718D02*
X005252Y003718D01*
X005322Y003599D02*
X005091Y003599D01*
X005641Y003718D02*
X005681Y003718D01*
X005681Y003836D02*
X005641Y003836D01*
X005641Y003955D02*
X005681Y003955D01*
X005681Y004073D02*
X005641Y004073D01*
X008969Y004784D02*
X009701Y004784D01*
X009752Y004903D02*
X009052Y004903D01*
X009101Y005022D02*
X009871Y005022D01*
X009701Y004666D02*
X009066Y004666D01*
X009115Y004547D02*
X009701Y004547D01*
X009743Y004429D02*
X009121Y004429D01*
X009121Y005140D02*
X010815Y005140D01*
X010933Y005259D02*
X009119Y005259D01*
X009070Y005377D02*
X011052Y005377D01*
X011170Y005496D02*
X008977Y005496D01*
X010451Y005022D02*
X010696Y005022D01*
X010578Y004903D02*
X010570Y004903D01*
X005681Y007867D02*
X005641Y007867D01*
X005641Y007985D02*
X005681Y007985D01*
X005681Y008104D02*
X005641Y008104D01*
D16*
X001661Y006661D02*
X005161Y003161D01*
X006161Y003161D01*
X006661Y003661D01*
X006661Y004161D01*
X006661Y002661D02*
X004661Y002661D01*
X002661Y004661D01*
X001661Y005661D01*
X001161Y005661D01*
X001161Y006661D02*
X001661Y006661D01*
X001161Y003661D02*
X001161Y002161D01*
X004161Y002161D01*
X006661Y002661D02*
X006661Y001161D01*
X006661Y002661D02*
X012661Y002661D01*
X013661Y002661D02*
X014161Y003161D01*
X014161Y005161D01*
X014661Y005661D01*
X015161Y005661D01*
X013661Y007161D02*
X013161Y006661D01*
X012661Y006661D01*
X013661Y007161D02*
X014161Y007161D01*
X014661Y007661D01*
X015161Y007661D01*
X001161Y002161D02*
X001161Y001661D01*
D17*
X012661Y002661D03*
X013661Y002661D03*
X012661Y006661D03*
M02*
